<svg id="Layer_1" data-name="Layer 1" xmlns="http://www.w3.org/2000/svg" viewBox="0 0 137.5 55"><defs><style>.cls-1{fill:#1788a1;}.cls-2{fill:#a21f60;}.cls-3{fill:#e6332e;}.cls-4{fill:#e65d25;}.cls-5{fill:#f4b01c;}.cls-6{fill:#099146;}.cls-7{fill:#e6e41a;}.cls-8{fill:#e38625;}.cls-9{fill:#d44c27;}.cls-10{fill:#cb2034;}.cls-11{fill:#d21d58;}.cls-12{fill:#48307e;}.cls-13{fill:#1bb2d1;}.cls-14{fill:#124d6e;}.cls-15{fill:#cc1e5a;}.cls-16{fill:#f3d214;}.cls-17{fill:#6abd46;}.cls-18{fill:#f4b11b;}.cls-19{fill:#e95249;}.cls-20{fill:#6c2d86;}.cls-21{fill:#088c9b;}.cls-22{fill:#1a6484;}.cls-23{fill:#d53d6a;}.cls-24{fill:#ec774f;}.cls-25{fill:#d31b65;}.cls-26{fill:#231f20;}.cls-27{fill:#1888c9;}</style></defs><polygon class="cls-1" points="8.26 44.67 8.26 44.67 6.87 41.89 9.65 41.89 8.26 44.67"/><polygon class="cls-2" points="11.04 39.11 11.04 39.11 12.43 41.89 9.65 41.89 11.04 39.11"/><polygon class="cls-3" points="13.82 39.11 13.82 39.11 15.21 41.89 12.43 41.89 13.82 39.11"/><polygon class="cls-4" points="16.6 44.67 16.6 44.67 15.21 41.89 17.99 41.89 16.6 44.67"/><polygon class="cls-5" points="19.38 44.67 19.38 44.67 17.99 41.89 20.77 41.89 19.38 44.67"/><polygon class="cls-6" points="22.16 39.11 22.16 39.11 23.55 41.89 20.77 41.89 22.16 39.11"/><polygon class="cls-7" points="24.94 44.67 24.94 44.67 23.55 41.89 26.33 41.89 24.94 44.67"/><polygon class="cls-8" points="27.72 39.11 27.72 39.11 29.11 41.89 26.33 41.89 27.72 39.11"/><polygon class="cls-9" points="30.5 39.11 30.5 39.11 31.89 41.89 29.11 41.89 30.5 39.11"/><polygon class="cls-10" points="33.28 39.11 33.28 39.11 34.67 41.89 31.89 41.89 33.28 39.11"/><polygon class="cls-11" points="36.06 39.11 36.06 39.11 37.45 41.89 34.67 41.89 36.06 39.11"/><polygon class="cls-2" points="38.84 39.11 38.84 39.11 40.23 41.89 37.45 41.89 38.84 39.11"/><polygon class="cls-12" points="41.62 39.11 41.62 39.11 43.01 41.89 40.23 41.89 41.62 39.11"/><polygon class="cls-13" points="44.4 44.67 44.4 44.67 43.01 41.89 45.79 41.89 44.4 44.67"/><polygon class="cls-14" points="47.17 39.11 47.17 39.11 48.57 41.89 45.79 41.89 47.17 39.11"/><polygon class="cls-2" points="49.96 39.11 49.96 39.11 51.34 41.89 48.57 41.89 49.96 39.11"/><polygon class="cls-15" points="52.73 44.67 52.73 44.67 51.34 41.89 54.12 41.89 52.73 44.67"/><polygon class="cls-3" points="52.73 39.11 52.73 39.11 54.12 41.89 51.34 41.89 52.73 39.11"/><polygon class="cls-16" points="55.51 39.11 55.51 39.11 56.9 41.89 54.12 41.89 55.51 39.11"/><polygon class="cls-5" points="58.29 44.67 58.29 44.67 56.9 41.89 59.68 41.89 58.29 44.67"/><polygon class="cls-2" points="54.12 36.34 54.12 36.34 52.73 39.11 55.51 39.11 54.12 36.34"/><polygon class="cls-15" points="51.34 41.89 51.34 41.89 52.73 39.11 49.96 39.11 51.34 41.89"/><polygon class="cls-3" points="51.34 36.34 51.34 36.34 49.96 39.11 52.73 39.11 51.34 36.34"/><polygon class="cls-3" points="48.57 41.89 48.57 41.89 49.96 39.11 47.17 39.11 48.57 41.89"/><polygon class="cls-4" points="48.57 36.34 48.57 36.34 47.17 39.11 49.96 39.11 48.57 36.34"/><polygon class="cls-5" points="45.79 41.89 45.79 41.89 47.17 39.11 44.4 39.11 45.79 41.89"/><polygon class="cls-5" points="45.79 36.34 45.79 36.34 44.4 39.11 47.17 39.11 45.79 36.34"/><polygon class="cls-14" points="43.01 41.89 43.01 41.89 44.4 39.11 41.62 39.11 43.01 41.89"/><polygon class="cls-17" points="43.01 36.34 43.01 36.34 41.62 39.11 44.4 39.11 43.01 36.34"/><polygon class="cls-7" points="40.23 41.89 40.23 41.89 41.62 39.11 38.84 39.11 40.23 41.89"/><polygon class="cls-18" points="40.23 36.34 40.23 36.34 38.84 39.11 41.62 39.11 40.23 36.34"/><polygon class="cls-4" points="37.45 41.89 37.45 41.89 38.84 39.11 36.06 39.11 37.45 41.89"/><polygon class="cls-5" points="37.45 36.34 37.45 36.34 36.06 39.11 38.84 39.11 37.45 36.34"/><polygon class="cls-3" points="34.67 41.89 34.67 41.89 36.06 39.11 33.28 39.11 34.67 41.89"/><polygon class="cls-2" points="34.67 36.34 34.67 36.34 33.28 39.11 36.06 39.11 34.67 36.34"/><polygon class="cls-19" points="31.89 41.89 31.89 41.89 33.28 39.11 30.5 39.11 31.89 41.89"/><polygon class="cls-4" points="31.89 36.34 31.89 36.34 30.5 39.11 33.28 39.11 31.89 36.34"/><polygon class="cls-2" points="29.11 41.89 29.11 41.89 30.5 39.11 27.72 39.11 29.11 41.89"/><polygon class="cls-8" points="29.11 36.34 29.11 36.34 27.72 39.11 30.5 39.11 29.11 36.34"/><polygon class="cls-20" points="26.33 41.89 26.33 41.89 27.72 39.11 24.94 39.11 26.33 41.89"/><polygon class="cls-2" points="26.33 36.34 26.33 36.34 24.94 39.11 27.72 39.11 26.33 36.34"/><polygon class="cls-14" points="23.55 41.89 23.55 41.89 24.94 39.11 22.16 39.11 23.55 41.89"/><polygon class="cls-2" points="23.55 36.34 23.55 36.34 22.16 39.11 24.94 39.11 23.55 36.34"/><polygon class="cls-13" points="20.77 41.89 20.77 41.89 22.16 39.11 19.38 39.11 20.77 41.89"/><polygon class="cls-21" points="20.77 36.34 20.77 36.34 19.38 39.11 22.16 39.11 20.77 36.34"/><polygon class="cls-21" points="17.99 41.89 17.99 41.89 19.38 39.11 16.6 39.11 17.99 41.89"/><polygon class="cls-13" points="17.99 36.34 17.99 36.34 16.6 39.11 19.38 39.11 17.99 36.34"/><polygon class="cls-12" points="15.21 41.89 15.21 41.89 16.6 39.11 13.82 39.11 15.21 41.89"/><polygon class="cls-2" points="15.21 36.34 15.21 36.34 13.82 39.11 16.6 39.11 15.21 36.34"/><polygon class="cls-3" points="12.43 36.34 12.43 36.34 11.04 39.11 13.82 39.11 12.43 36.34"/><polygon class="cls-4" points="47.17 33.55 47.17 33.55 48.57 36.34 45.79 36.34 47.17 33.55"/><polygon class="cls-16" points="47.17 39.11 47.17 39.11 45.79 36.34 48.57 36.34 47.17 39.11"/><polygon class="cls-5" points="44.4 33.55 44.4 33.55 45.79 36.34 43.01 36.34 44.4 33.55"/><polygon class="cls-7" points="44.4 39.11 44.4 39.11 43.01 36.34 45.79 36.34 44.4 39.11"/><polygon class="cls-17" points="41.62 33.55 41.62 33.55 43.01 36.34 40.23 36.34 41.62 33.55"/><polygon class="cls-6" points="41.62 39.11 41.62 39.11 40.23 36.34 43.01 36.34 41.62 39.11"/><polygon class="cls-7" points="38.84 33.55 38.84 33.55 40.23 36.34 37.45 36.34 38.84 33.55"/><polygon class="cls-13" points="38.84 39.11 38.84 39.11 37.45 36.34 40.23 36.34 38.84 39.11"/><polygon class="cls-4" points="36.06 33.55 36.06 33.55 37.45 36.34 34.67 36.34 36.06 33.55"/><polygon class="cls-8" points="36.06 39.11 36.06 39.11 34.67 36.34 37.45 36.34 36.06 39.11"/><polygon class="cls-20" points="33.28 33.55 33.28 33.55 34.67 36.34 31.89 36.34 33.28 33.55"/><polygon class="cls-9" points="33.28 39.11 33.28 39.11 31.89 36.34 34.67 36.34 33.28 39.11"/><polygon class="cls-19" points="30.5 33.55 30.5 33.55 31.89 36.34 29.11 36.34 30.5 33.55"/><polygon class="cls-10" points="30.5 39.11 30.5 39.11 29.11 36.34 31.89 36.34 30.5 39.11"/><polygon class="cls-2" points="27.72 33.55 27.72 33.55 29.11 36.34 26.33 36.34 27.72 33.55"/><polygon class="cls-11" points="27.72 39.11 27.72 39.11 26.33 36.34 29.11 36.34 27.72 39.11"/><polygon class="cls-20" points="24.94 33.55 24.94 33.55 26.33 36.34 23.55 36.34 24.94 33.55"/><polygon class="cls-9" points="24.94 39.11 24.94 39.11 23.55 36.34 26.33 36.34 24.94 39.11"/><polygon class="cls-14" points="22.16 33.55 22.16 33.55 23.55 36.34 20.77 36.34 22.16 33.55"/><polygon class="cls-12" points="22.16 39.11 22.16 39.11 20.77 36.34 23.55 36.34 22.16 39.11"/><polygon class="cls-13" points="19.38 33.55 19.38 33.55 20.77 36.34 17.99 36.34 19.38 33.55"/><polygon class="cls-22" points="19.38 39.11 19.38 39.11 17.99 36.34 20.77 36.34 19.38 39.11"/><polygon class="cls-14" points="16.6 39.11 16.6 39.11 15.21 36.34 17.99 36.34 16.6 39.11"/><polygon class="cls-4" points="17.99 36.34 17.99 36.34 16.6 33.55 19.38 33.55 17.99 36.34"/><polygon class="cls-5" points="20.77 36.34 20.77 36.34 19.38 33.55 22.16 33.55 20.77 36.34"/><polygon class="cls-7" points="20.77 30.77 20.77 30.77 22.16 33.55 19.38 33.55 20.77 30.77"/><polygon class="cls-17" points="23.55 36.34 23.55 36.34 22.16 33.55 24.94 33.55 23.55 36.34"/><polygon class="cls-6" points="23.55 30.77 23.55 30.77 24.94 33.55 22.16 33.55 23.55 30.77"/><polygon class="cls-7" points="26.33 36.34 26.33 36.34 24.94 33.55 27.72 33.55 26.33 36.34"/><polygon class="cls-8" points="26.33 30.77 26.33 30.77 27.72 33.55 24.94 33.55 26.33 30.77"/><polygon class="cls-4" points="29.11 36.34 29.11 36.34 27.72 33.55 30.5 33.55 29.11 36.34"/><polygon class="cls-18" points="29.11 30.77 29.11 30.77 30.5 33.55 27.72 33.55 29.11 30.77"/><polygon class="cls-3" points="31.89 36.34 31.89 36.34 30.5 33.55 33.28 33.55 31.89 36.34"/><polygon class="cls-2" points="31.89 30.77 31.89 30.77 33.28 33.55 30.5 33.55 31.89 30.77"/><polygon class="cls-5" points="34.67 36.34 34.67 36.34 33.28 33.55 36.06 33.55 34.67 36.34"/><polygon class="cls-4" points="34.67 30.77 34.67 30.77 36.06 33.55 33.28 33.55 34.67 30.77"/><polygon class="cls-2" points="37.45 36.34 37.45 36.34 36.06 33.55 38.84 33.55 37.45 36.34"/><polygon class="cls-8" points="37.45 30.77 37.45 30.77 38.84 33.55 36.06 33.55 37.45 30.77"/><polygon class="cls-20" points="40.23 36.34 40.23 36.34 38.84 33.55 41.62 33.55 40.23 36.34"/><polygon class="cls-4" points="40.23 30.77 40.23 30.77 41.62 33.55 38.84 33.55 40.23 30.77"/><polygon class="cls-14" points="43.01 36.34 43.01 36.34 41.62 33.55 44.4 33.55 43.01 36.34"/><polygon class="cls-21" points="43.01 30.77 43.01 30.77 44.4 33.55 41.62 33.55 43.01 30.77"/><polygon class="cls-13" points="45.79 36.34 45.79 36.34 44.4 33.55 47.17 33.55 45.79 36.34"/><polygon class="cls-22" points="45.79 30.77 45.79 30.77 47.17 33.55 44.4 33.55 45.79 30.77"/><polygon class="cls-21" points="48.57 36.34 48.57 36.34 47.17 33.55 49.96 33.55 48.57 36.34"/><polygon class="cls-7" points="24.94 27.99 24.94 27.99 23.55 30.77 26.33 30.77 24.94 27.99"/><polygon class="cls-18" points="24.94 33.55 24.94 33.55 26.33 30.77 23.55 30.77 24.94 33.55"/><polygon class="cls-4" points="27.72 27.99 27.72 27.99 26.33 30.77 29.11 30.77 27.72 27.99"/><polygon class="cls-3" points="27.72 33.55 27.72 33.55 29.11 30.77 26.33 30.77 27.72 33.55"/><polygon class="cls-3" points="30.5 27.99 30.5 27.99 29.11 30.77 31.89 30.77 30.5 27.99"/><polygon class="cls-9" points="30.5 33.55 30.5 33.55 31.89 30.77 29.11 30.77 30.5 33.55"/><polygon class="cls-19" points="33.28 27.99 33.28 27.99 31.89 30.77 34.67 30.77 33.28 27.99"/><polygon class="cls-10" points="33.28 33.55 33.28 33.55 34.67 30.77 31.89 30.77 33.28 33.55"/><polygon class="cls-2" points="36.06 27.99 36.06 27.99 34.67 30.77 37.45 30.77 36.06 27.99"/><polygon class="cls-11" points="36.06 33.55 36.06 33.55 37.45 30.77 34.67 30.77 36.06 33.55"/><polygon class="cls-20" points="38.84 27.99 38.84 27.99 37.45 30.77 40.23 30.77 38.84 27.99"/><polygon class="cls-2" points="38.84 33.55 38.84 33.55 40.23 30.77 37.45 30.77 38.84 33.55"/><polygon class="cls-14" points="41.62 27.99 41.62 27.99 40.23 30.77 43.01 30.77 41.62 27.99"/><polygon class="cls-12" points="41.62 33.55 41.62 33.55 43.01 30.77 40.23 30.77 41.62 33.55"/><polygon class="cls-3" points="30.5 22.43 30.5 22.43 29.11 19.66 31.89 19.66 30.5 22.43"/><polygon class="cls-9" points="30.5 16.88 30.5 16.88 31.89 19.66 29.11 19.66 30.5 16.88"/><polygon class="cls-19" points="33.28 22.43 33.28 22.43 31.89 19.66 34.67 19.66 33.28 22.43"/><polygon class="cls-10" points="33.28 16.88 33.28 16.88 34.67 19.66 31.89 19.66 33.28 16.88"/><polygon class="cls-2" points="36.06 22.43 36.06 22.43 34.67 19.66 37.45 19.66 36.06 22.43"/><polygon class="cls-23" points="36.06 16.88 36.06 16.88 37.45 19.66 34.67 19.66 36.06 16.88"/><polygon class="cls-20" points="38.84 22.43 38.84 22.43 37.45 19.66 40.23 19.66 38.84 22.43"/><polygon class="cls-2" points="29.11 19.66 29.11 19.66 30.5 16.88 27.72 16.88 29.11 19.66"/><polygon class="cls-11" points="31.89 14.1 31.89 14.1 30.5 16.88 33.28 16.88 31.89 14.1"/><polygon class="cls-8" points="31.89 19.66 31.89 19.66 33.28 16.88 30.5 16.88 31.89 19.66"/><polygon class="cls-19" points="34.67 14.1 34.67 14.1 33.28 16.88 36.06 16.88 34.67 14.1"/><polygon class="cls-20" points="34.67 19.66 34.67 19.66 36.06 16.88 33.28 16.88 34.67 19.66"/><polygon class="cls-11" points="37.45 19.66 37.45 19.66 38.84 16.88 36.06 16.88 37.45 19.66"/><polygon class="cls-17" points="43.01 30.77 43.01 30.77 44.4 27.99 41.62 27.99 43.01 30.77"/><polygon class="cls-7" points="40.23 30.77 40.23 30.77 41.62 27.99 38.84 27.99 40.23 30.77"/><polygon class="cls-18" points="40.23 25.21 40.23 25.21 38.84 27.99 41.62 27.99 40.23 25.21"/><polygon class="cls-4" points="37.45 30.77 37.45 30.77 38.84 27.99 36.06 27.99 37.45 30.77"/><polygon class="cls-8" points="37.45 25.21 37.45 25.21 36.06 27.99 38.84 27.99 37.45 25.21"/><polygon class="cls-3" points="34.67 30.77 34.67 30.77 36.06 27.99 33.28 27.99 34.67 30.77"/><polygon class="cls-9" points="34.67 25.21 34.67 25.21 33.28 27.99 36.06 27.99 34.67 25.21"/><polygon class="cls-8" points="31.89 30.77 31.89 30.77 33.28 27.99 30.5 27.99 31.89 30.77"/><polygon class="cls-10" points="31.89 25.21 31.89 25.21 30.5 27.99 33.28 27.99 31.89 25.21"/><polygon class="cls-2" points="29.11 30.77 29.11 30.77 30.5 27.99 27.72 27.99 29.11 30.77"/><polygon class="cls-11" points="29.11 25.21 29.11 25.21 27.72 27.99 30.5 27.99 29.11 25.21"/><polygon class="cls-20" points="26.33 30.77 26.33 30.77 27.72 27.99 24.94 27.99 26.33 30.77"/><polygon class="cls-2" points="26.33 25.21 26.33 25.21 24.94 27.99 27.72 27.99 26.33 25.21"/><polygon class="cls-14" points="23.55 30.77 23.55 30.77 24.94 27.99 22.16 27.99 23.55 30.77"/><polygon class="cls-18" points="24.94 27.99 24.94 27.99 26.33 25.21 23.55 25.21 24.94 27.99"/><polygon class="cls-8" points="27.72 27.99 27.72 27.99 29.11 25.21 26.33 25.21 27.72 27.99"/><polygon class="cls-3" points="30.5 22.43 30.5 22.43 29.11 25.21 31.89 25.21 30.5 22.43"/><polygon class="cls-9" points="30.5 27.99 30.5 27.99 31.89 25.21 29.11 25.21 30.5 27.99"/><polygon class="cls-19" points="33.28 22.43 33.28 22.43 31.89 25.21 34.67 25.21 33.28 22.43"/><polygon class="cls-3" points="33.28 27.99 33.28 27.99 34.67 25.21 31.89 25.21 33.28 27.99"/><polygon class="cls-2" points="36.06 22.43 36.06 22.43 34.67 25.21 37.45 25.21 36.06 22.43"/><polygon class="cls-11" points="36.06 27.99 36.06 27.99 37.45 25.21 34.67 25.21 36.06 27.99"/><polygon class="cls-20" points="38.84 22.43 38.84 22.43 37.45 25.21 40.23 25.21 38.84 22.43"/><polygon class="cls-2" points="38.84 27.99 38.84 27.99 40.23 25.21 37.45 25.21 38.84 27.99"/><polygon class="cls-12" points="41.62 27.99 41.62 27.99 43.01 25.21 40.23 25.21 41.62 27.99"/><polygon class="cls-18" points="26.33 19.66 26.33 19.66 27.72 22.43 24.94 22.43 26.33 19.66"/><polygon class="cls-18" points="43.01 19.66 43.01 19.66 44.4 22.43 41.62 22.43 43.01 19.66"/><polygon class="cls-4" points="29.11 25.21 29.11 25.21 27.72 22.43 30.5 22.43 29.11 25.21"/><polygon class="cls-8" points="29.11 19.66 29.11 19.66 30.5 22.43 27.72 22.43 29.11 19.66"/><polygon class="cls-8" points="31.89 25.21 31.89 25.21 30.5 22.43 33.28 22.43 31.89 25.21"/><polygon class="cls-9" points="31.89 19.66 31.89 19.66 33.28 22.43 30.5 22.43 31.89 19.66"/><polygon class="cls-11" points="34.67 25.21 34.67 25.21 33.28 22.43 36.06 22.43 34.67 25.21"/><polygon class="cls-10" points="34.67 19.66 34.67 19.66 36.06 22.43 33.28 22.43 34.67 19.66"/><polygon class="cls-23" points="37.45 25.21 37.45 25.21 36.06 22.43 38.84 22.43 37.45 25.21"/><polygon class="cls-11" points="37.45 19.66 37.45 19.66 38.84 22.43 36.06 22.43 37.45 19.66"/><polygon class="cls-3" points="30.5 16.88 30.5 16.88 29.11 14.1 31.89 14.1 30.5 16.88"/><polygon class="cls-9" points="29.11 14.1 29.11 14.1 30.5 16.88 27.72 16.88 29.11 14.1"/><polygon class="cls-24" points="33.28 16.88 33.28 16.88 31.89 14.1 34.67 14.1 33.28 16.88"/><polygon class="cls-10" points="33.28 11.32 33.28 11.32 34.67 14.1 31.89 14.1 33.28 11.32"/><polygon class="cls-2" points="36.06 16.88 36.06 16.88 34.67 14.1 37.45 14.1 36.06 16.88"/><polygon class="cls-11" points="36.06 11.32 36.06 11.32 37.45 14.1 34.67 14.1 36.06 11.32"/><polygon class="cls-3" points="34.67 14.1 34.67 14.1 36.06 11.32 33.28 11.32 34.67 14.1"/><polygon class="cls-9" points="34.67 8.54 34.67 8.54 33.28 11.32 36.06 11.32 34.67 8.54"/><polygon class="cls-19" points="31.89 14.1 31.89 14.1 33.28 11.32 30.5 11.32 31.89 14.1"/><polygon class="cls-10" points="31.89 8.54 31.89 8.54 30.5 11.32 33.28 11.32 31.89 8.54"/><polygon class="cls-25" points="33.28 5.76 33.28 5.76 34.67 8.54 31.89 8.54 33.28 5.76"/><polygon class="cls-8" points="33.28 11.32 33.28 11.32 31.89 8.54 34.67 8.54 33.28 11.32"/><polygon class="cls-3" points="31.89 8.54 31.89 8.54 30.5 5.76 33.28 5.76 31.89 8.54"/><polygon class="cls-19" points="34.67 8.54 34.67 8.54 33.28 5.76 36.06 5.76 34.67 8.54"/><polygon class="cls-19" points="33.28 0.2 33.28 0.2 31.89 2.98 34.67 2.98 33.28 0.2"/><polygon class="cls-2" points="33.28 5.76 33.28 5.76 34.67 2.98 31.89 2.98 33.28 5.76"/><path class="cls-26" d="M62,32.88a2.14,2.14,0,0,1-.54.77,2.23,2.23,0,0,1-.84.47,3.23,3.23,0,0,1-1.06.16H56.06V25.56h3.39a2.79,2.79,0,0,1,1.93.63A2.26,2.26,0,0,1,62.09,28a2,2,0,0,1-.11.65,2.1,2.1,0,0,1-.27.54,1.83,1.83,0,0,1-.37.41,2.09,2.09,0,0,1-.43.25,2.15,2.15,0,0,1,.49.27,2.1,2.1,0,0,1,.41.43,1.72,1.72,0,0,1,.3.57,2.47,2.47,0,0,1,.11.75A2.71,2.71,0,0,1,62,32.88Zm-1.65-5.81a1.55,1.55,0,0,0-1-.32h-2v2.5h2a1.6,1.6,0,0,0,1-.32,1.14,1.14,0,0,0,.39-.93A1.12,1.12,0,0,0,60.37,27.07Zm.16,3.73a1.46,1.46,0,0,0-1.06-.36H57.38v2.65h2.09a1.43,1.43,0,0,0,1.06-.37,1.43,1.43,0,0,0,0-1.92Z"/><path class="cls-26" d="M69,34.28l-.6-1.75H65l-.6,1.75H63l3.19-8.72h1.07l3.2,8.72Zm-2.29-6.74-1.36,3.88H68Z"/><path class="cls-26" d="M76.82,34.28l-4-6.14v6.14H71.47V25.56h1.21l4,6.13V25.56H78v8.72Z"/><path class="cls-26" d="M86,32.33a2.7,2.7,0,0,1-.61,1,3,3,0,0,1-1.1.75,3.46,3.46,0,0,1-1.3.24,3,3,0,0,1-1.26-.25,2.92,2.92,0,0,1-1-.69,2.22,2.22,0,0,1-.49-.67,3.16,3.16,0,0,1-.25-.77,4.45,4.45,0,0,1-.09-.93c0-.33,0-.71,0-1.13s0-.79,0-1.13a4.45,4.45,0,0,1,.09-.93,3.31,3.31,0,0,1,.25-.77,2.35,2.35,0,0,1,.49-.67,3.15,3.15,0,0,1,1-.7A3.27,3.27,0,0,1,83,25.48a3.48,3.48,0,0,1,1.25.22,3.1,3.1,0,0,1,.94.58,2.84,2.84,0,0,1,.64.86,4.18,4.18,0,0,1,.35,1.05H84.79a2,2,0,0,0-.64-1.12,1.81,1.81,0,0,0-1.2-.4,1.72,1.72,0,0,0-.72.15,1.92,1.92,0,0,0-.57.39,2,2,0,0,0-.26.38,1.84,1.84,0,0,0-.16.5c0,.2-.06.44-.08.73s0,.66,0,1.1,0,.81,0,1.11,0,.53.08.73a2,2,0,0,0,.16.51,2.26,2.26,0,0,0,.26.37,1.75,1.75,0,0,0,.57.39,1.89,1.89,0,0,0,.72.14,1.94,1.94,0,0,0,.8-.16,1.9,1.9,0,0,0,.63-.46,1.52,1.52,0,0,0,.33-.61,2.5,2.5,0,0,0,.1-.76v-.49H83V29.58h3.19v1.33A4.86,4.86,0,0,1,86,32.33Z"/><path class="cls-26" d="M87.9,34.28V25.56h1.33v7.53h4.2v1.19Z"/><path class="cls-26" d="M99.76,34.28l-.6-1.75H95.72l-.6,1.75H93.71l3.2-8.72H98l3.2,8.72Zm-2.29-6.74-1.36,3.88h2.68Z"/><path class="cls-26" d="M108.42,30.83a7.3,7.3,0,0,1-.08,1,4,4,0,0,1-.26.9,2.49,2.49,0,0,1-.54.78,2.68,2.68,0,0,1-1,.62,3.62,3.62,0,0,1-1.26.2h-3.06V25.56h3.06a3.87,3.87,0,0,1,1.26.2,2.56,2.56,0,0,1,1,.62,2.45,2.45,0,0,1,.54.77,3.49,3.49,0,0,1,.26.85,6.84,6.84,0,0,1,.08.91c0,.32,0,.63,0,.95S108.42,30.5,108.42,30.83ZM107,28.34a1.72,1.72,0,0,0-.4-1,1.92,1.92,0,0,0-1.49-.59h-1.61v6.34h1.61a1.94,1.94,0,0,0,1.49-.58,1.85,1.85,0,0,0,.4-1.06q.06-.69.06-1.59C107.1,29.25,107.08,28.75,107,28.34Z"/><path class="cls-26" d="M110.2,34.28V25.56h5.57v1.19h-4.25V29.3h3.63v1.17h-3.63v2.62h4.25v1.19Z"/><path class="cls-26" d="M122.62,32.87a2.22,2.22,0,0,1-.65.81,2.8,2.8,0,0,1-1,.5,4.17,4.17,0,0,1-1.26.18A5.29,5.29,0,0,1,118,34.1a3.6,3.6,0,0,1-1.36-.89l.88-.88a2.62,2.62,0,0,0,1,.66,3.84,3.84,0,0,0,1.21.18,2.22,2.22,0,0,0,1.33-.35,1.17,1.17,0,0,0,.48-1,1.13,1.13,0,0,0-.35-.9,1,1,0,0,0-.37-.24,3,3,0,0,0-.58-.13l-1-.15a3,3,0,0,1-1.66-.7,2.19,2.19,0,0,1-.63-1.67,2.52,2.52,0,0,1,.2-1,2.43,2.43,0,0,1,.57-.82,2.66,2.66,0,0,1,.92-.52,3.81,3.81,0,0,1,1.22-.19,4.57,4.57,0,0,1,1.51.23,3.76,3.76,0,0,1,1.2.77l-.84.83a2.21,2.21,0,0,0-.88-.53,3.4,3.4,0,0,0-1-.14,1.72,1.72,0,0,0-1.19.38,1.31,1.31,0,0,0-.41,1,1.33,1.33,0,0,0,.08.45,1,1,0,0,0,.26.36,1.89,1.89,0,0,0,1,.4l1,.15a4.47,4.47,0,0,1,1,.25,2.28,2.28,0,0,1,.65.4,2.08,2.08,0,0,1,.53.77,2.73,2.73,0,0,1,.18,1A2.37,2.37,0,0,1,122.62,32.87Z"/><path class="cls-26" d="M129.31,34.28V30.47h-3.54v3.81h-1.32V25.56h1.32v3.72h3.54V25.56h1.32v8.72Z"/><path class="cls-27" d="M14.93,52.07a1.64,1.64,0,0,1-.48.6,2.17,2.17,0,0,1-.73.36,3,3,0,0,1-.92.13A3.73,3.73,0,0,1,11.53,53a2.4,2.4,0,0,1-1-.66l.64-.63a2.07,2.07,0,0,0,.75.48,3,3,0,0,0,.89.13,1.6,1.6,0,0,0,1-.26.85.85,0,0,0,.35-.72.91.91,0,0,0-.25-.67,1.34,1.34,0,0,0-.27-.17l-.44-.09-.75-.11a2.22,2.22,0,0,1-1.21-.52,1.57,1.57,0,0,1-.47-1.22,2,2,0,0,1,.15-.75,1.81,1.81,0,0,1,.42-.6,1.85,1.85,0,0,1,.67-.39,2.79,2.79,0,0,1,.9-.13,3,3,0,0,1,1.1.17,2.62,2.62,0,0,1,.88.56l-.62.61a1.41,1.41,0,0,0-.64-.39,2.56,2.56,0,0,0-.75-.11,1.28,1.28,0,0,0-.87.28,1,1,0,0,0-.3.72.88.88,0,0,0,.06.33,1.41,1.41,0,0,0,.18.27,1.53,1.53,0,0,0,.73.29l.72.1a3.48,3.48,0,0,1,.72.19,1.66,1.66,0,0,1,.48.29,1.45,1.45,0,0,1,.39.57,2.17,2.17,0,0,1,.13.74A1.8,1.8,0,0,1,14.93,52.07Z"/><path class="cls-27" d="M18.94,53.11,17.66,51l-.67.77v1.34h-.91v-6.4H17v3.94l1.77-2.1h1.11l-1.58,1.79,1.79,2.77Z"/><path class="cls-27" d="M20.76,47.66v-1h1v1Zm0,5.45V48.55h.92v4.56Z"/><path class="cls-27" d="M24.16,53.11A1.36,1.36,0,0,1,23.6,53a1.13,1.13,0,0,1-.39-.27,1,1,0,0,1-.23-.4,1.55,1.55,0,0,1-.07-.48V46.71h.92v5.08a.64.64,0,0,0,.1.4.48.48,0,0,0,.39.13h.4v.79Z"/><path class="cls-27" d="M26.73,53.11a1.4,1.4,0,0,1-.56-.11,1.13,1.13,0,0,1-.39-.27,1.11,1.11,0,0,1-.22-.4,1.55,1.55,0,0,1-.07-.48V46.71h.91v5.08a.64.64,0,0,0,.11.4.47.47,0,0,0,.38.13h.41v.79Z"/><path class="cls-27" d="M28.55,51.1a1.42,1.42,0,0,0,.29.93,1.08,1.08,0,0,0,.86.34,1.67,1.67,0,0,0,.64-.11,2.58,2.58,0,0,0,.47-.35l.58.54a2.51,2.51,0,0,1-.35.31,1.79,1.79,0,0,1-.38.22,1.5,1.5,0,0,1-.44.13,2.73,2.73,0,0,1-.53,0,2.53,2.53,0,0,1-.8-.12,1.62,1.62,0,0,1-.65-.4,1.85,1.85,0,0,1-.45-.72,3.46,3.46,0,0,1-.16-1.1,2.56,2.56,0,0,1,.53-1.72,1.78,1.78,0,0,1,1.41-.6,2,2,0,0,1,.82.16,1.69,1.69,0,0,1,.6.45,1.78,1.78,0,0,1,.38.69,2.82,2.82,0,0,1,.13.89v.41Zm2-1a1.13,1.13,0,0,0-.09-.28.83.83,0,0,0-.34-.42,1,1,0,0,0-.56-.16,1,1,0,0,0-.56.16.85.85,0,0,0-.35.42,1.09,1.09,0,0,0-.08.28,2.68,2.68,0,0,0,0,.34H30.6A2.45,2.45,0,0,0,30.56,50.12Z"/><path class="cls-27" d="M35.1,53.11v-.49a1.29,1.29,0,0,1-.54.42,1.69,1.69,0,0,1-.66.12,1.81,1.81,0,0,1-.63-.11,1.34,1.34,0,0,1-.48-.29,1.38,1.38,0,0,1-.28-.4,2.46,2.46,0,0,1-.16-.48,4.6,4.6,0,0,1-.06-.52c0-.19,0-.36,0-.54s0-.35,0-.52a4.12,4.12,0,0,1,.06-.52,2.46,2.46,0,0,1,.16-.48,1.26,1.26,0,0,1,.28-.4,1.39,1.39,0,0,1,.47-.29,1.61,1.61,0,0,1,.63-.11,1.73,1.73,0,0,1,.66.11,1.31,1.31,0,0,1,.54.4v-2.3H36v6.4Zm-.05-2.86a1.3,1.3,0,0,0-.13-.48.72.72,0,0,0-.29-.33.85.85,0,0,0-.48-.12.88.88,0,0,0-.5.12.78.78,0,0,0-.29.33,1.29,1.29,0,0,0-.14.48,5.17,5.17,0,0,0,0,.57,5.35,5.35,0,0,0,0,.58,1.41,1.41,0,0,0,.14.49.78.78,0,0,0,.29.33.88.88,0,0,0,.5.12.85.85,0,0,0,.48-.12.72.72,0,0,0,.29-.33,1.41,1.41,0,0,0,.13-.49,5.28,5.28,0,0,0,0-.58A5.1,5.1,0,0,0,35.05,50.25Z"/><path class="cls-27" d="M37.21,53.11V52h1.1v1.1Z"/><path class="cls-27" d="M41.57,53.11v-6.4h4.08v.87H42.54v1.87h2.65v.86H42.54v1.93h3.11v.87Z"/><path class="cls-27" d="M49.25,55V52.64a1.38,1.38,0,0,1-.53.4,1.76,1.76,0,0,1-.66.12,1.81,1.81,0,0,1-.63-.11,1.29,1.29,0,0,1-.47-.29,1.64,1.64,0,0,1-.29-.4,2.43,2.43,0,0,1-.14-.48,3.12,3.12,0,0,1-.08-.52c0-.19,0-.36,0-.54s0-.35,0-.52a2.83,2.83,0,0,1,.08-.52,2.43,2.43,0,0,1,.14-.48,1.47,1.47,0,0,1,.29-.4,1.29,1.29,0,0,1,.47-.29,1.66,1.66,0,0,1,.64-.11,1.61,1.61,0,0,1,.65.11,1.43,1.43,0,0,1,.55.43v-.49h.9V55Zm0-4.7a1.52,1.52,0,0,0-.13-.48.75.75,0,0,0-.28-.33,1,1,0,0,0-.5-.12.93.93,0,0,0-.5.12.85.85,0,0,0-.29.33,1.3,1.3,0,0,0-.13.48,5.17,5.17,0,0,0,0,.57,5.35,5.35,0,0,0,0,.58,1.41,1.41,0,0,0,.13.49.85.85,0,0,0,.29.33.93.93,0,0,0,.5.12,1,1,0,0,0,.5-.12.75.75,0,0,0,.28-.33,1.67,1.67,0,0,0,.13-.49,5.35,5.35,0,0,0,0-.58A5.17,5.17,0,0,0,49.22,50.25Z"/><path class="cls-27" d="M54.15,53.11v-.46a1.4,1.4,0,0,1-.55.38,1.65,1.65,0,0,1-.66.13,1.81,1.81,0,0,1-.63-.11,1.36,1.36,0,0,1-.85-.88,2.26,2.26,0,0,1-.1-.71V48.55h.92v2.78a1,1,0,0,0,.26.77.94.94,0,0,0,.66.24,1.13,1.13,0,0,0,.36-.06.71.71,0,0,0,.3-.18,1,1,0,0,0,.2-.32,1.25,1.25,0,0,0,.08-.45V48.55h.91v4.56Z"/><path class="cls-27" d="M56.27,47.66v-1h1v1Zm0,5.45V48.55h.92v4.56Z"/><path class="cls-27" d="M62.16,51.36a3.09,3.09,0,0,1-.07.52,1.94,1.94,0,0,1-.16.48,1.34,1.34,0,0,1-.27.4,1.26,1.26,0,0,1-.48.29,1.8,1.8,0,0,1-.62.11A1.69,1.69,0,0,1,59.9,53a1.4,1.4,0,0,1-.54-.4V55h-.91v-6.4h.89V49a1.43,1.43,0,0,1,.55-.43,1.69,1.69,0,0,1,.66-.11,1.64,1.64,0,0,1,.63.11,1.34,1.34,0,0,1,.48.29,1.23,1.23,0,0,1,.27.4,1.94,1.94,0,0,1,.16.48,2.84,2.84,0,0,1,.07.52c0,.17,0,.35,0,.52S62.17,51.17,62.16,51.36Zm-.94-1.11a1.3,1.3,0,0,0-.13-.48.69.69,0,0,0-.28-.33.9.9,0,0,0-.5-.12,1,1,0,0,0-.5.12.83.83,0,0,0-.28.33,1.3,1.3,0,0,0-.13.48,3.48,3.48,0,0,0,0,.57,3.6,3.6,0,0,0,0,.58,1.41,1.41,0,0,0,.13.49.83.83,0,0,0,.28.33,1,1,0,0,0,.5.12.9.9,0,0,0,.5-.12.69.69,0,0,0,.28-.33,1.41,1.41,0,0,0,.13-.49,3.6,3.6,0,0,0,0-.58A3.48,3.48,0,0,0,61.22,50.25Z"/><path class="cls-27" d="M66.91,51.36a3.09,3.09,0,0,1-.07.52,1.94,1.94,0,0,1-.16.48,1.56,1.56,0,0,1-.27.4,1.29,1.29,0,0,1-.47.29,1.85,1.85,0,0,1-.63.11,1.69,1.69,0,0,1-.66-.12,1.4,1.4,0,0,1-.54-.4V55h-.92v-6.4h.91V49a1.41,1.41,0,0,1,.54-.43,1.66,1.66,0,0,1,.66-.11,1.61,1.61,0,0,1,.63.11,1.26,1.26,0,0,1,.48.29,1.41,1.41,0,0,1,.27.4,1.94,1.94,0,0,1,.16.48,2.84,2.84,0,0,1,.07.52c0,.17,0,.35,0,.52S66.92,51.17,66.91,51.36ZM66,50.25a1,1,0,0,0-.13-.48.75.75,0,0,0-.28-.33,1.1,1.1,0,0,0-1,0,.83.83,0,0,0-.28.33,1.29,1.29,0,0,0-.14.48,5.17,5.17,0,0,0,0,.57,5.35,5.35,0,0,0,0,.58,1.41,1.41,0,0,0,.14.49.83.83,0,0,0,.28.33,1.1,1.1,0,0,0,1,0,.75.75,0,0,0,.28-.33A1.08,1.08,0,0,0,66,51.4a3.6,3.6,0,0,0,0-.58A3.48,3.48,0,0,0,66,50.25Z"/><path class="cls-27" d="M68.63,51.1a1.37,1.37,0,0,0,.3.93,1.05,1.05,0,0,0,.86.34,1.53,1.53,0,0,0,.62-.11,2.08,2.08,0,0,0,.48-.35l.58.54a3.25,3.25,0,0,1-.35.31,1.79,1.79,0,0,1-.38.22,1.5,1.5,0,0,1-.44.13,2.81,2.81,0,0,1-.53,0A2.53,2.53,0,0,1,69,53a1.62,1.62,0,0,1-.65-.4,1.85,1.85,0,0,1-.45-.72,3.46,3.46,0,0,1-.16-1.1,2.56,2.56,0,0,1,.53-1.72,1.81,1.81,0,0,1,1.41-.6,1.94,1.94,0,0,1,.82.16,1.73,1.73,0,0,1,.61.45,1.91,1.91,0,0,1,.37.69,2.82,2.82,0,0,1,.13.89v.41Zm2-1a.68.68,0,0,0-.1-.28.87.87,0,0,0-.33-.42,1,1,0,0,0-.56-.16,1,1,0,0,0-.56.16.78.78,0,0,0-.34.42.65.65,0,0,0-.09.28,1.58,1.58,0,0,0,0,.34h2.05A2.45,2.45,0,0,0,70.64,50.12Z"/><path class="cls-27" d="M75.18,53.11v-.49a1.29,1.29,0,0,1-.54.42,1.69,1.69,0,0,1-.66.12,1.85,1.85,0,0,1-.63-.11,1.34,1.34,0,0,1-.48-.29,1.38,1.38,0,0,1-.28-.4,2.44,2.44,0,0,1-.15-.48,3.09,3.09,0,0,1-.07-.52c0-.19,0-.36,0-.54s0-.35,0-.52a2.84,2.84,0,0,1,.07-.52,2.44,2.44,0,0,1,.15-.48,1.26,1.26,0,0,1,.28-.4,1.39,1.39,0,0,1,.47-.29A1.61,1.61,0,0,1,74,48.5a1.69,1.69,0,0,1,.66.11,1.22,1.22,0,0,1,.53.4v-2.3h.92v6.4Zm-.05-2.86a1.3,1.3,0,0,0-.13-.48.75.75,0,0,0-.28-.33.93.93,0,0,0-.5-.12.87.87,0,0,0-.49.12.78.78,0,0,0-.29.33,1.29,1.29,0,0,0-.14.48,5.17,5.17,0,0,0,0,.57,5.35,5.35,0,0,0,0,.58,1.41,1.41,0,0,0,.14.49.78.78,0,0,0,.29.33.87.87,0,0,0,.49.12.93.93,0,0,0,.5-.12.75.75,0,0,0,.28-.33,1.41,1.41,0,0,0,.13-.49,5.35,5.35,0,0,0,0-.58A5.17,5.17,0,0,0,75.13,50.25Z"/><path class="cls-27" d="M77.29,53.11V52h1.1v1.1Z"/><path class="cls-27" d="M86.19,50.57a5.21,5.21,0,0,1-.06.7,2.94,2.94,0,0,1-.19.66,1.81,1.81,0,0,1-.39.57,1.89,1.89,0,0,1-.74.46,2.91,2.91,0,0,1-.92.15H81.65v-6.4h2.24a2.65,2.65,0,0,1,.92.15,2,2,0,0,1,.74.45,1.93,1.93,0,0,1,.39.57,2.77,2.77,0,0,1,.19.62,5.21,5.21,0,0,1,.06.67v1.4Zm-1-1.82a1.09,1.09,0,0,0-.3-.73,1.35,1.35,0,0,0-1.08-.44H82.62v4.66h1.17a1.38,1.38,0,0,0,1.08-.43,1.21,1.21,0,0,0,.3-.79,9.73,9.73,0,0,0,0-1.15A8.9,8.9,0,0,0,85.17,48.75Z"/><path class="cls-27" d="M87.27,47.66v-1h1v1Zm0,5.45V48.55h.92v4.56Z"/><path class="cls-27" d="M92.8,53.85a1.68,1.68,0,0,1-.39.61,1.85,1.85,0,0,1-.61.4A2.35,2.35,0,0,1,91,55a2.82,2.82,0,0,1-.88-.13,2.28,2.28,0,0,1-.72-.47l.58-.58a1.87,1.87,0,0,0,.43.3,1.31,1.31,0,0,0,.56.1,1.07,1.07,0,0,0,.49-.1.9.9,0,0,0,.33-.25,1.13,1.13,0,0,0,.19-.36,1.61,1.61,0,0,0,.06-.44v-.59a1.44,1.44,0,0,1-.54.41,1.87,1.87,0,0,1-.64.11,1.75,1.75,0,0,1-.62-.11,1.44,1.44,0,0,1-.46-.29,1.49,1.49,0,0,1-.43-.81,5.48,5.48,0,0,1-.09-1,5.63,5.63,0,0,1,.09-1.05,1.46,1.46,0,0,1,1.52-1.19,1.67,1.67,0,0,1,.65.11,1.51,1.51,0,0,1,.55.43v-.49h.88v4.53A2.11,2.11,0,0,1,92.8,53.85ZM92,50.22a1.36,1.36,0,0,0-.12-.46,1,1,0,0,0-.28-.32,1.1,1.1,0,0,0-1,0,.76.76,0,0,0-.27.32,1.36,1.36,0,0,0-.13.46,4.58,4.58,0,0,0,0,.53,4.71,4.71,0,0,0,0,.53,1.25,1.25,0,0,0,.13.45.73.73,0,0,0,.27.33,1.1,1.1,0,0,0,1,0,.91.91,0,0,0,.28-.33,1.24,1.24,0,0,0,.12-.45,4.71,4.71,0,0,0,0-.53A4.58,4.58,0,0,0,92,50.22Z"/><path class="cls-27" d="M94.14,47.66v-1h1v1Zm0,5.45V48.55h.92v4.56Z"/><path class="cls-27" d="M97.68,53.11a1.31,1.31,0,0,1-.55-.11,1.15,1.15,0,0,1-.39-.28,1.27,1.27,0,0,1-.23-.41,1.5,1.5,0,0,1-.08-.47v-2.5h-.52v-.71h.52V47.25h.92v1.38h.88v.71h-.88v2.45a.58.58,0,0,0,.12.4.49.49,0,0,0,.38.13h.38v.79Z"/><path class="cls-27" d="M101.59,53.11v-.42a1.47,1.47,0,0,1-.53.36,1.82,1.82,0,0,1-.68.11,2,2,0,0,1-.73-.11,1.22,1.22,0,0,1-.5-.3,1.4,1.4,0,0,1-.35-1,1.27,1.27,0,0,1,.39-1,1.67,1.67,0,0,1,1.18-.36h1.2v-.32a.86.86,0,0,0-.23-.65,1.11,1.11,0,0,0-.76-.21,1.38,1.38,0,0,0-.6.1,1.06,1.06,0,0,0-.4.34l-.6-.56a1.58,1.58,0,0,1,.69-.52,2.78,2.78,0,0,1,.94-.14c1.25,0,1.88.52,1.88,1.56v3Zm0-2H100.5a.86.86,0,0,0-.6.17.58.58,0,0,0-.22.48.6.6,0,0,0,.21.48,1,1,0,0,0,.63.17,2.09,2.09,0,0,0,.46,0,.69.69,0,0,0,.39-.21,1,1,0,0,0,.2-.68Z"/><path class="cls-27" d="M104.91,53.11a1.41,1.41,0,0,1-.57-.11,1.13,1.13,0,0,1-.39-.27,1,1,0,0,1-.22-.4,1.56,1.56,0,0,1-.08-.48V46.71h.92v5.08a.58.58,0,0,0,.11.4.46.46,0,0,0,.38.13h.41v.79Z"/><path class="cls-27" d="M109.89,53.11l-1.34-2.7h-1.21v2.7h-1v-6.4h2.47a2.31,2.31,0,0,1,.82.14,1.92,1.92,0,0,1,.63.39,2,2,0,0,1,.4.59,2,2,0,0,1,.14.75,1.65,1.65,0,0,1-.37,1.12,1.91,1.91,0,0,1-.91.58L111,53.11Zm-.33-5.26a1.13,1.13,0,0,0-.79-.27h-1.43v2h1.43a1.17,1.17,0,0,0,.79-.25,1,1,0,0,0,.3-.75A.92.92,0,0,0,109.56,47.85Z"/><path class="cls-27" d="M112.6,51.1a1.42,1.42,0,0,0,.3.93,1.09,1.09,0,0,0,.87.34,1.56,1.56,0,0,0,.62-.11,2.08,2.08,0,0,0,.48-.35l.58.54a2.58,2.58,0,0,1-.36.31,1.72,1.72,0,0,1-.37.22,1.6,1.6,0,0,1-.44.13,2.92,2.92,0,0,1-.54,0,2.63,2.63,0,0,1-.8-.12,1.62,1.62,0,0,1-.65-.4,2,2,0,0,1-.44-.72,3.46,3.46,0,0,1-.16-1.1,2.51,2.51,0,0,1,.53-1.72,1.78,1.78,0,0,1,1.41-.6,1.86,1.86,0,0,1,.81.16,1.65,1.65,0,0,1,.61.45,1.92,1.92,0,0,1,.38.69,2.82,2.82,0,0,1,.13.89v.41Zm2-1a1.13,1.13,0,0,0-.09-.28.91.91,0,0,0-.35-.42.88.88,0,0,0-.55-.16,1,1,0,0,0-.56.16.91.91,0,0,0-.35.42.63.63,0,0,0-.08.28,2.45,2.45,0,0,0,0,.34h2.05A2.68,2.68,0,0,0,114.62,50.12Z"/><path class="cls-27" d="M119,53.11v-.42a1.53,1.53,0,0,1-.52.36,1.92,1.92,0,0,1-.69.11,2,2,0,0,1-.73-.11,1.29,1.29,0,0,1-.5-.3,1.4,1.4,0,0,1-.35-1,1.27,1.27,0,0,1,.39-1,1.68,1.68,0,0,1,1.18-.36H119v-.32a.86.86,0,0,0-.23-.65,1.11,1.11,0,0,0-.76-.21,1.38,1.38,0,0,0-.6.1,1.14,1.14,0,0,0-.4.34l-.6-.56a1.64,1.64,0,0,1,.69-.52,2.82,2.82,0,0,1,.94-.14c1.25,0,1.88.52,1.88,1.56v3Zm0-2h-1.07a.92.92,0,0,0-.61.17.6.6,0,0,0-.2.48.57.57,0,0,0,.2.48,1,1,0,0,0,.63.17,2.19,2.19,0,0,0,.47,0,.69.69,0,0,0,.38-.21.92.92,0,0,0,.2-.68Z"/><path class="cls-27" d="M123.71,53.11v-.49a1.37,1.37,0,0,1-.55.42,1.69,1.69,0,0,1-.66.12,1.85,1.85,0,0,1-.63-.11,1.26,1.26,0,0,1-.48-.29,1.38,1.38,0,0,1-.28-.4,1.92,1.92,0,0,1-.15-.48,3.09,3.09,0,0,1-.07-.52c0-.19,0-.36,0-.54s0-.35,0-.52a2.84,2.84,0,0,1,.07-.52,1.92,1.92,0,0,1,.15-.48,1.26,1.26,0,0,1,.28-.4,1.29,1.29,0,0,1,.47-.29,1.64,1.64,0,0,1,.63-.11,1.61,1.61,0,0,1,.65.11,1.25,1.25,0,0,1,.54.4v-2.3h.92v6.4Zm0-2.86a1.84,1.84,0,0,0-.13-.48.94.94,0,0,0-.29-.33,1,1,0,0,0-.5-.12.93.93,0,0,0-.5.12.85.85,0,0,0-.29.33,1.52,1.52,0,0,0-.13.48,5.17,5.17,0,0,0,0,.57,5.35,5.35,0,0,0,0,.58,1.67,1.67,0,0,0,.13.49.85.85,0,0,0,.29.33.93.93,0,0,0,.5.12,1,1,0,0,0,.5-.12.94.94,0,0,0,.29-.33,2,2,0,0,0,.13-.49c0-.18,0-.38,0-.58S123.67,50.43,123.66,50.25Z"/><path class="cls-27" d="M127.26,54a1.42,1.42,0,0,1-.32.57,1.13,1.13,0,0,1-.43.26,1.75,1.75,0,0,1-.51.07h-.37v-.82h.23a.65.65,0,0,0,.42-.1.73.73,0,0,0,.24-.38l.25-.71-1.59-4.35h1l1.08,3.21,1.06-3.21h1Z"/><path class="cls-27" d="M129.22,53.11V52h1.09v1.1Z"/><path class="cls-26" d="M56.83,18.89a7.45,7.45,0,0,1-.09.95,3.2,3.2,0,0,1-.26.9,2.46,2.46,0,0,1-.53.78,2.64,2.64,0,0,1-1,.62,3.62,3.62,0,0,1-1.26.2H50.63V13.62h3.06a3.87,3.87,0,0,1,1.26.2,2.64,2.64,0,0,1,1,.62,2.42,2.42,0,0,1,.53.77,2.79,2.79,0,0,1,.26.85,6.83,6.83,0,0,1,.09.92v1.91Zm-1.39-2.5a1.71,1.71,0,0,0-.4-1,1.91,1.91,0,0,0-1.48-.58H52v6.34h1.6A1.91,1.91,0,0,0,55,20.56a1.73,1.73,0,0,0,.4-1.06c0-.45.07-1,.07-1.58S55.48,16.8,55.44,16.39Z"/><path class="cls-26" d="M58.6,22.34V13.62h1.33v8.72Z"/><path class="cls-26" d="M67.85,20.39a2.59,2.59,0,0,1-.61,1,2.84,2.84,0,0,1-1.1.76,3.45,3.45,0,0,1-1.3.23,3.25,3.25,0,0,1-1.26-.23,3.09,3.09,0,0,1-1-.7,2.35,2.35,0,0,1-.49-.67,3,3,0,0,1-.25-.77,5.24,5.24,0,0,1-.09-.93c0-.33,0-.71,0-1.13s0-.79,0-1.13a5.24,5.24,0,0,1,.09-.93,3.16,3.16,0,0,1,.25-.77,2.35,2.35,0,0,1,.49-.67,3.14,3.14,0,0,1,1-.7,3.4,3.4,0,0,1,1.26-.23,3.49,3.49,0,0,1,1.25.21,3.1,3.1,0,0,1,.94.58,2.72,2.72,0,0,1,.64.86A3.61,3.61,0,0,1,68,16.25H66.68A2,2,0,0,0,66,15.13a1.81,1.81,0,0,0-1.2-.4,1.72,1.72,0,0,0-.72.15,1.92,1.92,0,0,0-.57.39,2,2,0,0,0-.26.38,1.56,1.56,0,0,0-.15.5,4.51,4.51,0,0,0-.08.73c0,.29,0,.66,0,1.1s0,.81,0,1.1a4.79,4.79,0,0,0,.08.75,1.64,1.64,0,0,0,.15.5,1.9,1.9,0,0,0,.26.37,1.92,1.92,0,0,0,.57.39,1.89,1.89,0,0,0,.72.14,2.11,2.11,0,0,0,.8-.16,1.87,1.87,0,0,0,.62-.45,1.68,1.68,0,0,0,.35-.62,2.88,2.88,0,0,0,.09-.76v-.49H64.84V17.64H68V19A4.86,4.86,0,0,1,67.85,20.39Z"/><path class="cls-26" d="M69.79,22.34V13.62h1.33v8.72Z"/><path class="cls-26" d="M76.16,14.81v7.53H74.84V14.81h-2.4V13.62h6.12v1.19Z"/><path class="cls-26" d="M84.16,22.34l-.6-1.75H80.12l-.6,1.75H78.11l3.2-8.72h1.06l3.2,8.72ZM81.87,15.6l-1.36,3.88h2.68Z"/><path class="cls-26" d="M86.62,22.34V13.62H88v7.53h4.2v1.19Z"/></svg>