<svg xmlns="http://www.w3.org/2000/svg" width="150" height="150" viewBox="0 0 150 150"><g transform="translate(-220.507 -134.114)"><g transform="translate(263.853 134.114)"><path d="M308.479,141.926a41.994,41.994,0,0,0-4.208-2.94,31.667,31.667,0,0,0-16.612-4.872,32.475,32.475,0,0,0-12.7,2.683,46.2,46.2,0,0,0-12.995,8.568,45.187,45.187,0,0,0-4.925,5.234,5.88,5.88,0,0,0,9.3,7.2h0l.022-.029a39.036,39.036,0,0,1,6.815-6.431A31.114,31.114,0,0,1,279.9,147.5a20.6,20.6,0,0,1,7.761-1.6,19.753,19.753,0,0,1,10.213,2.992A16.547,16.547,0,0,1,308.479,141.926Z" transform="translate(-255.822 -134.114)" fill="#5262aa"/><path d="M321.641,164.12c-.566-1.568-1.241-3.161-2.012-4.776a16.61,16.61,0,0,1-9.139,8.525c.032.084.068.171.1.253a27.532,27.532,0,0,1,1.774,9.369,21.3,21.3,0,0,1-2.645,10.3c-2.454,4.58-6.53,8.508-10.622,11.6-2.041,1.549-4.064,2.888-5.867,4.044-.9.579-1.749,1.113-2.532,1.619s-1.5.979-2.195,1.493a5.885,5.885,0,0,0,7,9.464c.407-.306,1.255-.864,2.313-1.536,1.867-1.192,4.42-2.791,7.181-4.8A54.93,54.93,0,0,0,317.56,197.4a36.2,36.2,0,0,0,4.692-8.956,32.787,32.787,0,0,0,1.862-10.95A39.278,39.278,0,0,0,321.641,164.12Z" transform="translate(-248.931 -128.31)" fill="#5262aa"/><path d="M293.134,148.924a12.613,12.613,0,1,0,10.417-5.513h-.006A12.6,12.6,0,0,0,293.134,148.924Z" transform="translate(-247.837 -131.976)" fill="#5262aa"/></g><g transform="translate(282.685 175.577)"><path d="M317.978,224.278a24.4,24.4,0,0,1-7.389,1.212,21.521,21.521,0,0,1-9.873-2.439,39.344,39.344,0,0,1-11.683-9.8c-1.6-1.88-3-3.743-4.218-5.4-.612-.833-1.176-1.614-1.711-2.337s-1.037-1.387-1.579-2.028a5.882,5.882,0,1,0-8.968,7.614c.32.375.9,1.149,1.612,2.119,1.252,1.71,2.93,4.05,5,6.579A56.752,56.752,0,0,0,291.5,231.28a37.2,37.2,0,0,0,8.675,4.282,32.639,32.639,0,0,0,10.413,1.7,37.489,37.489,0,0,0,14.145-2.911c.846-.343,1.7-.729,2.554-1.135A16.625,16.625,0,0,1,317.978,224.278Z" transform="translate(-271.165 -160.1)" fill="#3fb192"/><path d="M344.815,186.976a45.346,45.346,0,0,0-9.613-13.27,45.844,45.844,0,0,0-5.842-4.883,5.884,5.884,0,0,0-6.564,9.768h0l.147.1a39.644,39.644,0,0,1,7.4,7.129,29.452,29.452,0,0,1,4.068,6.685,19.783,19.783,0,0,1,1.672,7.8,20.775,20.775,0,0,1-2.9,10.284c-.324.581-.693,1.176-1.089,1.78a16.552,16.552,0,0,1,6.331,11.139,46.694,46.694,0,0,0,5.011-7.16,32.62,32.62,0,0,0,4.4-16.043A31.845,31.845,0,0,0,344.815,186.976Z" transform="translate(-260.013 -167.823)" fill="#3fb192"/><path d="M331.787,207.108a12.625,12.625,0,1,0-9.676,22.441A12.516,12.516,0,0,0,336.583,218.2c.033-.376.056-.757.056-1.142A12.623,12.623,0,0,0,331.787,207.108Z" transform="translate(-262.016 -159.405)" fill="#3fb192"/></g><g transform="translate(249.029 196.076)"><path d="M256.693,231.369a24.511,24.511,0,0,1-1.194-7.407,21.622,21.622,0,0,1,2.452-9.89,39.358,39.358,0,0,1,9.807-11.688c1.878-1.6,3.74-3,5.4-4.219.831-.61,1.613-1.173,2.336-1.708s1.385-1.038,2.026-1.578a5.884,5.884,0,0,0-7.58-9c-.374.32-1.149.9-2.118,1.611-1.709,1.25-4.047,2.927-6.574,5a56.753,56.753,0,0,0-11.491,12.331,37.349,37.349,0,0,0-4.288,8.686,32.83,32.83,0,0,0-1.722,10.431,37.737,37.737,0,0,0,2.878,14.181c.341.848.724,1.7,1.128,2.562A16.629,16.629,0,0,1,256.693,231.369Z" transform="translate(-243.745 -184.489)" fill="#f8a500"/><path d="M297.591,258.231a45.25,45.25,0,0,0,13.26-9.609,45.75,45.75,0,0,0,4.884-5.845,5.879,5.879,0,0,0-9.733-6.6v0l-.1.148a39.629,39.629,0,0,1-7.128,7.4,29.4,29.4,0,0,1-6.679,4.064,19.661,19.661,0,0,1-7.787,1.659,20.664,20.664,0,0,1-10.256-2.928c-.578-.326-1.172-.7-1.774-1.095a16.5,16.5,0,0,1-11.128,6.322,46.785,46.785,0,0,0,7.135,5.036,32.444,32.444,0,0,0,16,4.443A31.659,31.659,0,0,0,297.591,258.231Z" transform="translate(-239.788 -173.192)" fill="#f8a500"/><path d="M271.828,245.156a12.609,12.609,0,1,0-11.081,4.785c.375.034.755.059,1.139.059A12.574,12.574,0,0,0,271.828,245.156Z" transform="translate(-242.484 -175.237)" fill="#f8a500"/></g><g transform="translate(220.507 163.858)"><path d="M301.879,187.165c-.3-.411-.858-1.264-1.527-2.333-1.183-1.882-2.771-4.457-4.773-7.242a54.74,54.74,0,0,0-12.238-12.68,35.973,35.973,0,0,0-8.956-4.736,32.619,32.619,0,0,0-10.967-1.878,39.215,39.215,0,0,0-13.281,2.447c-.762.273-1.533.581-2.307.9a16.631,16.631,0,0,1,8.031,9.631,26.507,26.507,0,0,1,7.557-1.2,21.154,21.154,0,0,1,10.31,2.665c4.576,2.474,8.489,6.583,11.563,10.71,1.541,2.058,2.871,4.1,4.02,5.915.576.91,1.106,1.764,1.607,2.554s.972,1.512,1.483,2.213a5.882,5.882,0,1,0,9.479-6.966Z" transform="translate(-214.294 -158.295)" fill="#e62c59"/><path d="M244.036,219.138h0l-.027-.023a38.921,38.921,0,0,1-6.359-6.827,31.24,31.24,0,0,1-3.8-6.723,20.79,20.79,0,0,1-1.588-7.758,19.933,19.933,0,0,1,3.174-10.554c.308-.506.648-1.021,1.015-1.544a16.559,16.559,0,0,1-6.455-10.767,43.876,43.876,0,0,0-4.591,6.171,31.787,31.787,0,0,0-4.9,16.693,32.75,32.75,0,0,0,2.65,12.676,46.39,46.39,0,0,0,8.47,13,45.084,45.084,0,0,0,5.176,4.94,5.884,5.884,0,0,0,7.233-9.282Z" transform="translate(-220.507 -154.466)" fill="#e62c59"/><path d="M247.7,163.229a12.606,12.606,0,0,0-16.43,11.705c0,.116-.017.23-.017.347A12.618,12.618,0,1,0,247.7,163.229Z" transform="translate(-218.064 -157.297)" fill="#e62c59"/></g></g></svg>