<svg xmlns="http://www.w3.org/2000/svg" width="162.835" height="38" viewBox="0 0 162.835 38"><g transform="translate(-220.507 -134.114)"><g transform="translate(231.488 134.114)"><path d="M269.162,136.093a10.637,10.637,0,0,0-1.066-.745,8.021,8.021,0,0,0-4.208-1.234,8.228,8.228,0,0,0-3.216.68,11.7,11.7,0,0,0-3.292,2.171,11.41,11.41,0,0,0-1.248,1.326,1.49,1.49,0,0,0,2.355,1.825h0l.006-.007a9.879,9.879,0,0,1,1.726-1.629,7.893,7.893,0,0,1,1.7-.974,5.218,5.218,0,0,1,1.966-.406,5,5,0,0,1,2.587.758A4.192,4.192,0,0,1,269.162,136.093Z" transform="translate(-255.822 -134.114)" fill="#5262aa"/><path d="M295.12,160.554c-.143-.4-.314-.8-.51-1.21a4.208,4.208,0,0,1-2.315,2.16l.025.064a6.971,6.971,0,0,1,.449,2.374,5.4,5.4,0,0,1-.67,2.609,9.538,9.538,0,0,1-2.691,2.938c-.517.392-1.03.732-1.486,1.025-.229.147-.443.282-.641.41s-.38.248-.556.378a1.491,1.491,0,0,0,1.773,2.4c.1-.077.318-.219.586-.389.473-.3,1.12-.707,1.819-1.217a13.915,13.915,0,0,0,3.184-3.109,9.171,9.171,0,0,0,1.189-2.269,8.306,8.306,0,0,0,.472-2.774A9.95,9.95,0,0,0,295.12,160.554Z" transform="translate(-276.7 -151.482)" fill="#5262aa"/><path d="M291.49,144.808a3.2,3.2,0,1,0,2.639-1.4h0A3.191,3.191,0,0,0,291.49,144.808Z" transform="translate(-280.015 -140.514)" fill="#5262aa"/></g><g transform="translate(236.259 144.618)"><path d="M283.024,207.191a6.178,6.178,0,0,1-1.872.307,5.452,5.452,0,0,1-2.5-.618,9.964,9.964,0,0,1-2.96-2.484c-.4-.476-.76-.948-1.069-1.369-.155-.211-.3-.409-.433-.592s-.263-.351-.4-.514a1.49,1.49,0,1,0-2.272,1.929c.081.1.229.291.408.537.317.433.742,1.026,1.268,1.667a14.378,14.378,0,0,0,3.123,2.911,9.419,9.419,0,0,0,2.2,1.085,8.268,8.268,0,0,0,2.638.432,9.5,9.5,0,0,0,3.583-.738c.214-.087.43-.185.647-.288A4.212,4.212,0,0,1,283.024,207.191Z" transform="translate(-271.165 -190.933)" fill="#3fb192"/><path d="M326.442,172.675a11.488,11.488,0,0,0-2.435-3.362,11.623,11.623,0,0,0-1.48-1.237,1.491,1.491,0,0,0-1.663,2.475h0l.037.026a10.044,10.044,0,0,1,1.875,1.806,7.46,7.46,0,0,1,1.03,1.694,5.01,5.01,0,0,1,.423,1.976,5.262,5.262,0,0,1-.735,2.605c-.082.147-.176.3-.276.451a4.193,4.193,0,0,1,1.6,2.822,11.836,11.836,0,0,0,1.269-1.814,8.265,8.265,0,0,0,1.116-4.064A8.07,8.07,0,0,0,326.442,172.675Z" transform="translate(-304.959 -167.823)" fill="#3fb192"/><path d="M316.565,205.1a3.2,3.2,0,1,0-2.451,5.685,3.171,3.171,0,0,0,3.666-2.874c.008-.1.014-.192.014-.289A3.2,3.2,0,0,0,316.565,205.1Z" transform="translate(-298.889 -193.013)" fill="#3fb192"/></g><g transform="translate(227.733 149.811)"><path d="M247.025,196.365a6.211,6.211,0,0,1-.3-1.876,5.477,5.477,0,0,1,.621-2.505,9.968,9.968,0,0,1,2.484-2.961c.476-.405.947-.76,1.368-1.069.21-.155.408-.3.592-.433s.351-.263.513-.4a1.491,1.491,0,0,0-1.92-2.28c-.095.081-.291.229-.537.408-.433.316-1.025.742-1.665,1.267a14.379,14.379,0,0,0-2.911,3.124,9.463,9.463,0,0,0-1.086,2.2,8.318,8.318,0,0,0-.436,2.643,9.558,9.558,0,0,0,.729,3.592c.086.215.183.432.286.649A4.213,4.213,0,0,1,247.025,196.365Z" transform="translate(-243.745 -184.489)" fill="#f8a500"/><path d="M270.377,239.837a12.316,12.316,0,0,0,4.6-3.915,1.489,1.489,0,0,0-2.466-1.671h0l-.026.037a10.047,10.047,0,0,1-1.806,1.875,7.449,7.449,0,0,1-1.692,1.03,4.981,4.981,0,0,1-1.973.42,5.235,5.235,0,0,1-2.6-.742c-.146-.083-.3-.177-.449-.277a4.179,4.179,0,0,1-2.819,1.6,11.855,11.855,0,0,0,1.808,1.276,8.219,8.219,0,0,0,4.054,1.126A8.02,8.02,0,0,0,270.377,239.837Z" transform="translate(-255.734 -218.294)" fill="#f8a500"/><path d="M255,229.888a3.194,3.194,0,1,0-2.807,1.212c.1.009.191.015.289.015A3.186,3.186,0,0,0,255,229.888Z" transform="translate(-247.566 -212.175)" fill="#f8a500"/></g><g transform="translate(220.507 141.649)"><path d="M261.522,165.609c-.077-.1-.218-.32-.387-.591-.3-.477-.7-1.129-1.209-1.835a13.867,13.867,0,0,0-3.1-3.212,9.116,9.116,0,0,0-2.269-1.2,8.264,8.264,0,0,0-2.778-.476,9.934,9.934,0,0,0-3.364.62c-.193.069-.388.147-.585.228a4.213,4.213,0,0,1,2.034,2.44,6.713,6.713,0,0,1,1.914-.3,5.358,5.358,0,0,1,2.612.675,9.5,9.5,0,0,1,2.929,2.713c.39.521.727,1.038,1.018,1.5.146.231.281.447.407.647s.246.383.376.561a1.49,1.49,0,1,0,2.4-1.765Z" transform="translate(-239.334 -158.295)" fill="#e62c59"/><path d="M226.468,186.138h0l-.007-.006a9.858,9.858,0,0,1-1.611-1.729,7.918,7.918,0,0,1-.963-1.7,5.268,5.268,0,0,1-.4-1.965,5.05,5.05,0,0,1,.8-2.674c.078-.128.164-.259.257-.391a4.2,4.2,0,0,1-1.635-2.727,11.113,11.113,0,0,0-1.163,1.563,8.053,8.053,0,0,0-1.24,4.229,8.3,8.3,0,0,0,.671,3.211,11.755,11.755,0,0,0,2.146,3.293,11.422,11.422,0,0,0,1.311,1.251,1.491,1.491,0,0,0,1.832-2.351Z" transform="translate(-220.507 -169.755)" fill="#e62c59"/><path d="M235.42,162.785a3.194,3.194,0,0,0-4.162,2.965c0,.029,0,.058,0,.088a3.2,3.2,0,1,0,4.167-3.053Z" transform="translate(-227.912 -161.282)" fill="#e62c59"/></g></g><g transform="translate(-76.694 -251.134)"><path d="M122.758,283.763a6.142,6.142,0,0,1,0-4.6c0-.013.01-.027.015-.04a6.127,6.127,0,0,1,11.319,0c.006.013.01.026.015.04.038.095.075.191.108.288l.245.7h-9.288a5.094,5.094,0,0,0,0,2.617h11.9l.028-.226a8.74,8.74,0,1,0-8.672,7.656,8.713,8.713,0,0,0,6.179-2.56l.182-.182-1.851-1.851-.182.182a6.113,6.113,0,0,1-2.337,1.461l-.056.019a6.13,6.13,0,0,1-7.595-3.468c-.006-.014-.011-.028-.016-.043Z" transform="translate(0 -10.452)" fill="#fff" fill-rule="evenodd"/><path d="M408.182,289.621v-2.9a6.14,6.14,0,0,1-4.156.785l-.084-.014a6.122,6.122,0,0,1,.084-12.062,6.16,6.16,0,0,1,2.019,0l.079.013a6.122,6.122,0,0,1,5.033,6.025V290.2h2.618v-8.739a8.741,8.741,0,0,0-7.656-8.672,8.842,8.842,0,0,0-2.166,0,8.74,8.74,0,0,0,0,17.345,8.794,8.794,0,0,0,2.166,0,8.718,8.718,0,0,0,2.063-.516Z" transform="translate(-174.246 -10.452)" fill="#fff" fill-rule="evenodd"/><path d="M248.381,295.1H251V281.465a6.123,6.123,0,0,1,5.112-6.038,6.158,6.158,0,0,1,2.019,0l.079.013a6.122,6.122,0,0,1-2.1,12.063l-.084-.014a6.077,6.077,0,0,1-2.053-.771v2.9a8.716,8.716,0,0,0,2.063.516,8.791,8.791,0,0,0,2.166,0,8.74,8.74,0,1,0-9.822-8.672V295.1Z" transform="translate(-81.066 -10.452)" fill="#fff" fill-rule="evenodd"/><path d="M383.109,262.266v17.486h2.618V262.266Zm1.309-6.132a1.66,1.66,0,1,0,1.66,1.66,1.66,1.66,0,0,0-1.66-1.66Z" transform="translate(-165.717)" fill="#fff" fill-rule="evenodd"/><path d="M172.441,290.23h2.618V279.9a4.552,4.552,0,0,1,9.1,0V290.23h2.618V279.9a4.552,4.552,0,0,1,9.1,0V290.23H198.5V279.9a7.162,7.162,0,0,0-12.477-4.808.747.747,0,0,1-1.107,0,7.162,7.162,0,0,0-12.477,4.808V290.23Z" transform="translate(-33.228 -10.452)" fill="#fff" fill-rule="evenodd"/><path d="M308.785,272.793a8.84,8.84,0,1,0,1.083-.067,8.741,8.741,0,0,0-1.083.067Zm2.171,2.648a6.122,6.122,0,0,1-2.1,12.063l-.084-.014a6.122,6.122,0,0,1,.084-12.062,6.158,6.158,0,0,1,2.019,0l.079.013Z" transform="translate(-114.295 -10.452)" fill="#fff" fill-rule="evenodd"/><path d="M353.876,290.23h2.618v-8.593c0-.057,0-.114,0-.171a6.192,6.192,0,0,1,.083-1.009,6.123,6.123,0,0,1,6.038-5.112h.258v-2.618h-.258a8.733,8.733,0,0,0-8.739,8.739c0,.06,0,.12,0,.174v8.591Z" transform="translate(-147.523 -10.452)" fill="#fff" fill-rule="evenodd"/></g></svg>