<svg xmlns="http://www.w3.org/2000/svg" width="125" height="52" viewBox="0 0 125 52">
  <g id="Group_40368" data-name="Group 40368" transform="translate(-0.358 0.104)">
    <rect id="Rectangle_2963" data-name="Rectangle 2963" width="125" height="52" transform="translate(0.358 -0.104)" fill="#fff" opacity="0"/>
    <g id="Group_40362" data-name="Group 40362" transform="translate(15.056 1.582)">
      <g id="Group_40357" data-name="Group 40357" transform="translate(0 43.086)">
        <path id="Path_46598" data-name="Path 46598" d="M185.85,648.722v-4.095h4.128v.692h-2.911v.97h2.513v.693h-2.513v1.74Z" transform="translate(-185.85 -644.546)" fill="#ec1c24"/>
        <path id="Path_46599" data-name="Path 46599" d="M193.956,644.627h1.216v2.223a3.166,3.166,0,0,0,.045.686.7.7,0,0,0,.372.405,1.768,1.768,0,0,0,.8.152,1.658,1.658,0,0,0,.78-.144.581.581,0,0,0,.316-.354,3.164,3.164,0,0,0,.054-.7v-2.271h1.216v2.156a3.847,3.847,0,0,1-.1,1.044,1.067,1.067,0,0,1-.364.516,2,2,0,0,1-.709.335,4.429,4.429,0,0,1-1.158.124,4.742,4.742,0,0,1-1.308-.136,1.98,1.98,0,0,1-.7-.353,1.064,1.064,0,0,1-.341-.454,3.467,3.467,0,0,1-.119-1.043Z" transform="translate(-186.731 -644.546)" fill="#ec1c24"/>
        <path id="Path_46600" data-name="Path 46600" d="M204.442,648.722v-3.4h-1.787v-.692h4.785v.692h-1.783v3.4Z" transform="translate(-187.677 -644.546)" fill="#ec1c24"/>
        <path id="Path_46601" data-name="Path 46601" d="M211.253,644.627h1.216v2.223a3.143,3.143,0,0,0,.045.686.694.694,0,0,0,.372.405,1.768,1.768,0,0,0,.8.152,1.658,1.658,0,0,0,.78-.144.582.582,0,0,0,.316-.354,3.167,3.167,0,0,0,.053-.7v-2.271h1.216v2.156a3.8,3.8,0,0,1-.1,1.044,1.061,1.061,0,0,1-.364.516,2.006,2.006,0,0,1-.708.335,4.432,4.432,0,0,1-1.159.124,4.739,4.739,0,0,1-1.308-.136,1.993,1.993,0,0,1-.705-.353,1.062,1.062,0,0,1-.34-.454,3.463,3.463,0,0,1-.119-1.043Z" transform="translate(-188.611 -644.546)" fill="#ec1c24"/>
        <path id="Path_46602" data-name="Path 46602" d="M220.441,648.722v-4.095H223a6.327,6.327,0,0,1,1.4.11,1.394,1.394,0,0,1,.7.393.925.925,0,0,1-.135,1.406,2.367,2.367,0,0,1-1.191.379,2.938,2.938,0,0,1,.651.343,5.166,5.166,0,0,1,.692.665l.735.8H224.4l-.879-.891a6.553,6.553,0,0,0-.641-.6,1.012,1.012,0,0,0-.365-.17,2.894,2.894,0,0,0-.611-.046h-.247v1.71Zm1.216-2.363h.9a6.7,6.7,0,0,0,1.093-.051.686.686,0,0,0,.341-.173.419.419,0,0,0,.123-.307.405.405,0,0,0-.162-.334.9.9,0,0,0-.458-.16q-.148-.014-.888-.014h-.948Z" transform="translate(-189.61 -644.546)" fill="#ec1c24"/>
        <path id="Path_46603" data-name="Path 46603" d="M229.611,648.722v-4.095h4.464v.692h-3.248v.908h3.022v.69h-3.022v1.115h3.363v.69Z" transform="translate(-190.607 -644.546)" fill="#ec1c24"/>
        <path id="Path_46604" data-name="Path 46604" d="M243.2,648.722v-4.095h1.216v4.095Z" transform="translate(-192.084 -644.546)" fill="#ec1c24"/>
        <path id="Path_46605" data-name="Path 46605" d="M247.881,647.384l1.183-.079a.929.929,0,0,0,.433.6,1.735,1.735,0,0,0,.881.191,1.821,1.821,0,0,0,.885-.17q.3-.169.3-.4a.315.315,0,0,0-.125-.249A1.157,1.157,0,0,0,251,647.1q-.214-.05-.973-.18a4.177,4.177,0,0,1-1.372-.407.975.975,0,0,1-.554-.829.837.837,0,0,1,.261-.588,1.64,1.64,0,0,1,.751-.417,4.251,4.251,0,0,1,1.185-.143,3.412,3.412,0,0,1,1.707.34,1.1,1.1,0,0,1,.6.907l-1.216.036a.673.673,0,0,0-.335-.456,1.666,1.666,0,0,0-.77-.139,1.893,1.893,0,0,0-.829.149.287.287,0,0,0-.193.255.3.3,0,0,0,.181.25,4.148,4.148,0,0,0,1.117.276,7.941,7.941,0,0,1,1.312.3,1.618,1.618,0,0,1,.666.419.943.943,0,0,1,.24.655.957.957,0,0,1-.287.662,1.72,1.72,0,0,1-.814.46,4.851,4.851,0,0,1-1.31.15,3.485,3.485,0,0,1-1.753-.36A1.457,1.457,0,0,1,247.881,647.384Z" transform="translate(-192.592 -644.536)" fill="#ec1c24"/>
        <path id="Path_46606" data-name="Path 46606" d="M261.865,648.722v-4.095h1.216v1.611h2.382v-1.611h1.217v4.095h-1.217v-1.79h-2.382v1.79Z" transform="translate(-194.112 -644.546)" fill="#ec1c24"/>
        <path id="Path_46607" data-name="Path 46607" d="M271.035,648.722v-4.095H275.5v.692h-3.248v.908h3.022v.69h-3.022v1.115h3.363v.69Z" transform="translate(-195.109 -644.546)" fill="#ec1c24"/>
        <path id="Path_46608" data-name="Path 46608" d="M279.693,648.722v-4.095h2.558a6.321,6.321,0,0,1,1.4.11,1.392,1.392,0,0,1,.7.393.925.925,0,0,1-.135,1.406,2.37,2.37,0,0,1-1.192.379,2.948,2.948,0,0,1,.652.343,5.233,5.233,0,0,1,.692.665l.735.8h-1.454l-.879-.891a6.557,6.557,0,0,0-.641-.6,1.019,1.019,0,0,0-.365-.17,2.908,2.908,0,0,0-.612-.046h-.246v1.71Zm1.216-2.363h.9a6.674,6.674,0,0,0,1.092-.051.682.682,0,0,0,.341-.173.416.416,0,0,0,.123-.307.4.4,0,0,0-.162-.334.9.9,0,0,0-.457-.16q-.148-.014-.888-.014h-.948Z" transform="translate(-196.05 -644.546)" fill="#ec1c24"/>
        <path id="Path_46609" data-name="Path 46609" d="M288.862,648.722v-4.095h4.465v.692h-3.249v.908H293.1v.69h-3.023v1.115h3.364v.69Z" transform="translate(-197.047 -644.546)" fill="#ec1c24"/>
      </g>
      <g id="Group_40361" data-name="Group 40361" transform="translate(0.446 0.016)">
        <path id="Path_46610" data-name="Path 46610" d="M185.891,622.332l1.592-.068-1.236.812.406,1.473-1.248-.991-1.122.975.305-1.473-1.168-.8,1.541.034.473-1.27Z" transform="translate(-181.575 -598.666)" fill="#ec1c24"/>
        <path id="Path_46611" data-name="Path 46611" d="M189.641,629.046l1.607-.058-1.243.808.419,1.482-1.267-1-1.125.971.3-1.478-1.185-.806,1.555.043.472-1.272Z" transform="translate(-181.98 -599.395)" fill="#ec1c24"/>
        <path id="Path_46612" data-name="Path 46612" d="M221.293,622.408l1.591-.067-1.236.813.406,1.473-1.248-.992-1.122.975.305-1.473-1.168-.8,1.54.034.474-1.27Z" transform="translate(-185.423 -598.674)" fill="#ec1c24"/>
        <path id="Path_46613" data-name="Path 46613" d="M217.445,628.97l1.607-.059-1.242.809.419,1.481-1.267-1-1.126.971.3-1.477-1.185-.806,1.555.043.472-1.27Z" transform="translate(-185.002 -599.387)" fill="#ec1c24"/>
        <path id="Path_46614" data-name="Path 46614" d="M214.7,616.72a13.064,13.064,0,1,1-13.064-13.063A13.065,13.065,0,0,1,214.7,616.72Z" transform="translate(-182.135 -596.778)" fill="#ec1c24"/>
        <path id="Path_46615" data-name="Path 46615" d="M208.817,622.123a4.126,4.126,0,0,0-.943-2.962,1.312,1.312,0,0,1-.321-.964c0-.271.119-1.472-.576-1.542s-.66.441-.558.509.05.3-.152.3-.254.322-.271.389-.169.186-.2.051-.119-.22-.237-.169-.1.186-.3.22-.322-.745-.169-.9.068-.068.035-.22a.207.207,0,0,1,.236-.27.648.648,0,0,0,.525-.186c.051-.1.491-.085.592-.085s0-.644.1-.644.168-.22.168-.22a.5.5,0,0,0,.3-.085,2.445,2.445,0,0,0,.373-.931c.051-.22.051-.2.389-.474s.119-.389-.135-.745-1.709-.213-1.98-.186c-3.183.3-3.335.2-3.521.169s-.947-.339-1.2-.44a5.982,5.982,0,0,0,.271-1.423c0-.084-.253.017-.253-.033s-.119-.542-.119-.542c-.119-.474-.458-.288-.542,0s-.3.558-.423.474-.729-1-1.033-1.118-.355.153-.338.323-.356.236-.44.084a3.848,3.848,0,0,0-1.05-.694c-.356-.17-.389.135-.406.321s.034.373.389.339-.1.339-.338.558-.355.746-.2.914a2.182,2.182,0,0,0,.931.372c.05.525.456.594.745.628s.321.067.406.321-.66.272-.914.272-.221.287-.288.456-.406.237-.609.237-.036.338-.119.422-.542.1-.237.559a3.294,3.294,0,0,0,1.727.83c.22,0-.085.423.118.458s.3.184.086.268-.255.356-.255.661.509.61.542.66.034.525.2.525.406.12.253.185-.129.5-.129.5.358,3.249.691,3.249.332.384.332.384l.488.128c.1.041.464.207.509-.019a.536.536,0,0,1,.61-.43c.384.022.271-.361.361-.474s.383.069.429.248.519.068.519.068c.586-.113.293-1.2.429-1.4s.226.2.294.316.338.067.542.022.112-1.219.2-1.355.089-.225.428-.111.406-.227.564-.406.363-.023.452.179a7.78,7.78,0,0,0,.676,1.175c.181.2.022.9.022,1.263s.5.655.5,1.04a1.149,1.149,0,0,0,.293.834,2.394,2.394,0,0,1,.453.812c.067.226.292,1.016.563.654s-.385-1.986-.474-2.279.7-.046.947-.021S208.826,622.465,208.817,622.123ZM202.424,622h-.119v-.1h.119Zm1.626-1.946h-.087l-.033-.068h-.136l.018-.254.119.017.05.084.085.035Zm2.132-1.473h-.135l-.018-.219-.119-.018v-.22h.119l.052.119.1.033Z" transform="translate(-182.974 -597.442)" fill="#fff100"/>
        <path id="Path_46616" data-name="Path 46616" d="M220.69,615.575a19.67,19.67,0,1,1-19.669-19.636A19.653,19.653,0,0,1,220.69,615.575Z" transform="translate(-181.35 -595.939)" fill="none" stroke="#00a551" stroke-width="0.5"/>
        <g id="Group_40360" data-name="Group 40360" transform="translate(2.625 0.63)">
          <g id="Group_40358" data-name="Group 40358" transform="translate(7.98 31.718)">
            <path id="Path_46617" data-name="Path 46617" d="M195.752,634.054a.712.712,0,0,0-.53-.016.961.961,0,0,0,.012-.471,1.1,1.1,0,0,0-.173-.46l1.3.63-.324.67C196.037,634.264,195.942,634.147,195.752,634.054Zm1.534-.281-3.176-1.541-.164.335.395.192q.654.79.358,1.4a.959.959,0,0,1-.388.36.585.585,0,0,1-.53.1.708.708,0,0,1-.34-.4l-.193.395a1.226,1.226,0,0,0,.4.4.864.864,0,0,0,.772-.018c.212-.142.425-.281.642-.421a.585.585,0,0,1,.566-.117.329.329,0,0,1,.172.207.337.337,0,0,1-.012.257l-.6,1.242.449.218,1.172-2.414.312.152Z" transform="translate(-193.248 -632.232)" fill="#00a551"/>
            <path id="Path_46618" data-name="Path 46618" d="M198.153,635.692a10.643,10.643,0,0,1,1.875-.251l-.361,1.5A5.35,5.35,0,0,0,198.153,635.692Zm2.924-.946-3.631-.874-.088.363,2.8.672-.02.083a14.218,14.218,0,0,0-2.76.381l.036.487a3.476,3.476,0,0,1,1.258.693,2.722,2.722,0,0,1,.888,1.007l.432.1.634-2.642.366.087Zm-2.874,1.865-.284.283a2.571,2.571,0,0,1,.548.513l.354-.178A2.029,2.029,0,0,0,198.2,636.611Z" transform="translate(-193.695 -632.41)" fill="#00a551"/>
            <path id="Path_46619" data-name="Path 46619" d="M202.624,636.827a2.746,2.746,0,0,0-.55-.4c.008,0,.171-.117.492-.351a2.08,2.08,0,0,1,.544-.291l0,1.513C202.948,637.138,202.785,636.983,202.624,636.827Zm2.682-2-4.195.005v.372l2,0v.127q-.471.227-.942.45c-.37.182-.675.346-.911.489l.147.466a1.7,1.7,0,0,1,1.049.39,2.855,2.855,0,0,1,.7.794h.451l0-2.189q.959.067.958.505c0,.236-.141.354-.421.354h-.257v.4c.061.007.105.011.131.011a1.242,1.242,0,0,0,.7-.192.638.638,0,0,0,.312-.552.789.789,0,0,0-.488-.679,1.873,1.873,0,0,0-.936-.243V635.2l1.709,0Z" transform="translate(-194.103 -632.514)" fill="#00a551"/>
            <path id="Path_46620" data-name="Path 46620" d="M206.949,634.823l-.478.081.452,2.67-.485.081-.451-2.671-.515.088-.063-.367,1.478-.249Z" transform="translate(-194.57 -632.474)" fill="#00a551"/>
            <path id="Path_46621" data-name="Path 46621" d="M208.311,635.667a10.724,10.724,0,0,1,1.462-1.2l.483,1.464A5.336,5.336,0,0,0,208.311,635.667Zm1.984-2.347-3.546,1.172.118.353,2.732-.9.027.081a14.37,14.37,0,0,0-2.144,1.777l.286.4a3.475,3.475,0,0,1,1.433-.076,2.744,2.744,0,0,1,1.287.388l.421-.14-.853-2.579.357-.117Zm-1.459,3.1-.091.391a2.505,2.505,0,0,1,.737.146l.2-.337A1.991,1.991,0,0,0,208.835,636.421Z" transform="translate(-194.715 -632.35)" fill="#00a551"/>
          </g>
          <g id="Group_40359" data-name="Group 40359">
            <path id="Path_46622" data-name="Path 46622" d="M184.879,613.647l-.051.437,2.675.309-.054.462-1.8-.209a.845.845,0,0,0-.33.124,1.088,1.088,0,0,0-.622.854.923.923,0,0,0,.2.529.866.866,0,0,1,0-.26.91.91,0,0,1,.2-.493.466.466,0,0,1,.436-.188.941.941,0,0,1,.593.362,1.4,1.4,0,0,1,.324.677l-.383.26a1.291,1.291,0,0,0-.206-.518c-.133-.2-.262-.314-.39-.328-.079-.011-.152.083-.218.278a2.1,2.1,0,0,0-.091.418.4.4,0,0,0,.013.166l-.408.181c-.115-.167-.226-.331-.339-.5a.942.942,0,0,1-.115-.611,1.279,1.279,0,0,1,.676-1.031l-.565-.064.1-.9Z" transform="translate(-184.295 -598.489)" fill="#00a551"/>
            <path id="Path_46623" data-name="Path 46623" d="M185.977,610.068l-.125.385,2.59.846-.144.442-1.788-.583a.7.7,0,0,0-.619.139,1.094,1.094,0,0,0-.441.557.59.59,0,0,0,0,.406.4.4,0,0,0,.264.249.427.427,0,0,0,.34-.029.459.459,0,0,0,.228-.279.94.94,0,0,0,.033-.359l.452-.08a1.269,1.269,0,0,1-.036.563.972.972,0,0,1-.474.579.87.87,0,0,1-.7.07.809.809,0,0,1-.538-.5,1.215,1.215,0,0,1,.015-.815,1.141,1.141,0,0,1,.734-.745l-.4-.13.271-.83Z" transform="translate(-184.366 -598.093)" fill="#00a551"/>
            <path id="Path_46624" data-name="Path 46624" d="M187.645,608.6a.563.563,0,0,0-.184-.2.494.494,0,0,0-.581.06,1.477,1.477,0,0,1,.19-.733.826.826,0,0,1,.341-.3.71.71,0,0,1,.418-.093Zm.339-3.153-.686,1.109.563.346a2.131,2.131,0,0,0-.656.155,1.284,1.284,0,0,0-.5.5,2.107,2.107,0,0,0-.272.69,1.513,1.513,0,0,0,.014.719l.355.052a.625.625,0,0,1,.263-.232.36.36,0,0,1,.3.069.885.885,0,0,1,.283.343l.376-.023q.115-1.08.249-1.878c.127-.035.4.077.822.337.131.08.293.185.487.314s.307.2.341.225l.243-.4-2.314-1.423.387-.642Z" transform="translate(-184.523 -597.603)" fill="#00a551"/>
            <path id="Path_46625" data-name="Path 46625" d="M190.308,608.1l-.288.371a.844.844,0,0,0-.628.281,1.763,1.763,0,0,0-.209.407,1.891,1.891,0,0,1-.208.406,1.277,1.277,0,0,1-.59.414,1.42,1.42,0,0,1-.686.081l-.093-.381a1.1,1.1,0,0,0,1.016-.39,2.1,2.1,0,0,0,.205-.374,1.8,1.8,0,0,1,.206-.373,1,1,0,0,1,.59-.365l.685-.081.006,0Z" transform="translate(-184.655 -597.891)" fill="#00a551"/>
            <path id="Path_46626" data-name="Path 46626" d="M191.5,602.33l-1.177,1.154a.64.64,0,0,0,.491.032,1.144,1.144,0,0,0,.441-.281,1.77,1.77,0,0,0,.135-.149l.48.028a2.343,2.343,0,0,0,.424.937,1.446,1.446,0,0,0,.791.519l-.13.34a1.3,1.3,0,0,1-.84-.412,3.812,3.812,0,0,1-.6-.97,1.785,1.785,0,0,1-.759.374.941.941,0,0,1-.775-.081,1.026,1.026,0,0,0,.17.995c.127.128.248.138.361.026a.717.717,0,0,0,.168-.274.419.419,0,0,0,.026-.284l.322-.314a1,1,0,0,1,.534.336q.749.765-.144,1.64a1.221,1.221,0,0,1-.422.262c-.062.026-.217.072-.471.141q-.345-.068-1.017-.266l.036-.375a2.827,2.827,0,0,0,1.024.243l0-.01a1.84,1.84,0,0,1,.282-.107.73.73,0,0,0,.267-.152,1.016,1.016,0,0,0,.3-.509.548.548,0,0,0-.158-.515.4.4,0,0,0-.221-.125.858.858,0,0,1-.261.614.681.681,0,0,1-.509.222.694.694,0,0,1-.466-.229,1.271,1.271,0,0,1-.3-.849l-1.075,1.054-.254-.261,3.072-3.013Z" transform="translate(-184.717 -597.236)" fill="#00a551"/>
            <path id="Path_46627" data-name="Path 46627" d="M193.243,601.309l-.418.388,1.547,2.243-.382.265-1.548-2.243-.562.25-.255-.261,1.46-.971Z" transform="translate(-185.091 -597.117)" fill="#00a551"/>
            <path id="Path_46628" data-name="Path 46628" d="M196.828,599.463l-3.407,1.646-.159-.329,3.412-1.637Zm.265,1.418a1.343,1.343,0,0,1,.108,1.011,1.318,1.318,0,0,1-.745.782,1.6,1.6,0,0,1-1.144.118,4.157,4.157,0,0,1-1.01-.491l.116-.408q1.139.773,1.742.483a1.039,1.039,0,0,0,.533-.55.833.833,0,0,0-.011-.709.855.855,0,0,0-.535-.431.957.957,0,0,0-.733.038c-.234.112-.315.247-.241.4a.246.246,0,0,0,.21.13.4.4,0,0,0,.276-.064l-.065.423a.659.659,0,0,1-.52.03.616.616,0,0,1-.38-.318.55.55,0,0,1,.052-.559,1.15,1.15,0,0,1,.488-.406,1.5,1.5,0,0,1,1.072-.085A1.152,1.152,0,0,1,197.093,600.881Z" transform="translate(-185.269 -596.918)" fill="#00a551"/>
            <path id="Path_46629" data-name="Path 46629" d="M201.174,598.585l-.577.024.349,1.563h-.592a1.269,1.269,0,0,0-.615-.48,1.337,1.337,0,0,0-.812-.078.6.6,0,0,0-.334.187.363.363,0,0,0-.076.33c.012.056.075.1.187.122a.547.547,0,0,0,.253.014,1.65,1.65,0,0,0,.309-.161l.219.287c-.061.062-.119.122-.18.181a.513.513,0,0,1-.216.125,1.251,1.251,0,0,1-.677-.014.586.586,0,0,1-.409-.443.734.734,0,0,1,.188-.694,1.267,1.267,0,0,1,.7-.383,1.856,1.856,0,0,1,1.436.379l-.186-.832-2.9.652-.154-.32,4.059-.823Z" transform="translate(-185.685 -596.817)" fill="#00a551"/>
            <path id="Path_46630" data-name="Path 46630" d="M201.581,602.569l-.336.052a.61.61,0,0,0-.511-.261,1.6,1.6,0,0,0-.333.089,1.524,1.524,0,0,1-.332.091.9.9,0,0,1-.675-.183,3.767,3.767,0,0,1-.451-.505l.2-.3c.118.133.235.265.35.4a.608.608,0,0,0,.511.171,1.13,1.13,0,0,0,.277-.086,1.221,1.221,0,0,1,.284-.085.553.553,0,0,1,.463.181l-.151-1.425a.253.253,0,0,0-.111-.182.313.313,0,0,0-.221-.061,1.094,1.094,0,0,0-.474.239q-.311.227-.292.382c.006.064.05.093.132.084a.356.356,0,0,0,.26-.217l.3.261a.654.654,0,0,1-.562.3.494.494,0,0,1-.356-.087.4.4,0,0,1-.166-.292.762.762,0,0,1,.39-.662,1.578,1.578,0,0,1,.789-.338,2.219,2.219,0,0,1,.422,0l.261.218.131.322Z" transform="translate(-185.887 -597.024)" fill="#00a551"/>
            <path id="Path_46631" data-name="Path 46631" d="M202.658,598.322l-.4.027.181,2.711-.472.032-.182-2.711-.481.033-.025-.365.481-.032-.006-.084q0-.377-.508-.643a1.65,1.65,0,0,0-.909-.221,2.4,2.4,0,0,0-.925.277c-.15.079-.422.243-.82.493l-.273-.29a6.543,6.543,0,0,1,.895-.59,2.743,2.743,0,0,1,1.044-.308,2.291,2.291,0,0,1,1.257.3,1.165,1.165,0,0,1,.71.916c0,.04.005.081.009.124l.4-.027Z" transform="translate(-185.819 -596.646)" fill="#00a551"/>
            <path id="Path_46632" data-name="Path 46632" d="M207.444,600.284q1.265-.156,1.834-.162l-.422,1.485A5.475,5.475,0,0,0,207.444,600.284Zm2.933-.81-3.516-1-.1.349,2.644.754-.021.084a13.965,13.965,0,0,0-2.661.279l.008.48a3.31,3.31,0,0,1,1.173.747,2.7,2.7,0,0,1,.816,1.049l.4.114.746-2.62.407.116Z" transform="translate(-186.733 -596.844)" fill="#00a551"/>
            <path id="Path_46633" data-name="Path 46633" d="M211.94,600.634l-.416-.191-1.134,2.478-.423-.193,1.135-2.477-.471-.3.1-.35,1.361.708Z" transform="translate(-187.085 -596.967)" fill="#00a551"/>
            <path id="Path_46634" data-name="Path 46634" d="M213.045,602.256a.417.417,0,0,1-.288-.056.43.43,0,0,1-.2-.268.387.387,0,0,1,.036-.308.323.323,0,0,1,.243-.157.479.479,0,0,1,.322.077.339.339,0,0,1,.165.258.44.44,0,0,1-.053.3A.317.317,0,0,1,213.045,602.256Zm.688-.539a.748.748,0,0,0-.363-.521.864.864,0,0,0-.63-.128.7.7,0,0,0-.485.336.77.77,0,0,0-.1.613.875.875,0,0,0,.419.518.781.781,0,0,0,.6.13.72.72,0,0,0,.452-.353A.8.8,0,0,0,213.733,601.717Zm-1.078,2.806a8.87,8.87,0,0,0-.846-2.3l-.323.518a4.971,4.971,0,0,1,.538,1.047c.137.361.275.726.414,1.094Z" transform="translate(-187.25 -597.125)" fill="#00a551"/>
            <path id="Path_46635" data-name="Path 46635" d="M217.665,604.942l-.292-.267-1.841,2.011-.325-.3c.044-.048.115-.117.212-.207a2.928,2.928,0,0,0,.215-.21q.627-.683.244-1.035a.412.412,0,0,0-.365-.083.541.541,0,0,0-.317.148l-.383-.352a.573.573,0,0,0,.142-.353.424.424,0,0,0-.127-.379.445.445,0,0,0-.393-.128.606.606,0,0,0-.338.2.406.406,0,0,0-.1.406.835.835,0,0,0,.258.381,1.592,1.592,0,0,0,.149.124l-.395.2a1.329,1.329,0,0,1-.143-.108,1.027,1.027,0,0,1-.358-.7.893.893,0,0,1,.24-.691.868.868,0,0,1,.656-.3,1.036,1.036,0,0,1,.718.3.9.9,0,0,1,.267.833.915.915,0,0,1,.813.156.518.518,0,0,1,.146.265.528.528,0,0,1,0,.282l.7-.767-2.42-2.218.246-.268,3.038,2.783Z" transform="translate(-187.469 -597.216)" fill="#00a551"/>
            <path id="Path_46636" data-name="Path 46636" d="M218.838,606.59l-.324-.414-2.145,1.681-.288-.366,2.146-1.681-.282-.528.245-.268.954,1.378Z" transform="translate(-187.75 -597.555)" fill="#00a551"/>
            <path id="Path_46637" data-name="Path 46637" d="M217.673,610.013a.9.9,0,0,1-.262-.267,1.455,1.455,0,0,1-.329-.877,1.552,1.552,0,0,1,.71-1.064,1.517,1.517,0,0,1,.857-.213,5.423,5.423,0,0,1,.921.131l-.625-.964.307-.2,1.045,1.621-.3.193a2.232,2.232,0,0,0-.94-.347,1.366,1.366,0,0,0-.974.134,1.234,1.234,0,0,0-.535.583.959.959,0,0,0,.183.827.6.6,0,0,0,.3.209Z" transform="translate(-187.858 -597.723)" fill="#00a551"/>
            <path id="Path_46638" data-name="Path 46638" d="M221.357,611.131l-1.019-2.152-1.022.477a8.85,8.85,0,0,1,1.33,1.1l-.26.587a2.777,2.777,0,0,0-1.051.163,2.125,2.125,0,0,0-.64.5l-.283-.256a2.425,2.425,0,0,1,.614-.553,5.565,5.565,0,0,1,1.023-.362,6.547,6.547,0,0,0-1.431-.971l.12-.467,1.4-.654-.045-.141.33-.154,1.29,2.791Z" transform="translate(-188.003 -597.908)" fill="#00a551"/>
            <path id="Path_46639" data-name="Path 46639" d="M222.3,614.876l-.093-.38-2.648.646-.109-.444,1.987-.484a.62.62,0,0,0,.346-.235.492.492,0,0,0,.106-.428.453.453,0,0,0-.185-.276.346.346,0,0,0-.3-.064c-.286.069-.4.217-.345.444a.808.808,0,0,0,.244.312l-.455.112a.657.657,0,0,1-.283-.4.481.481,0,0,1,.041-.338,2.421,2.421,0,0,1,.194-.27.771.771,0,0,1-.324-.177.713.713,0,0,1-.193-.337.493.493,0,0,1,.112-.488l.444-.109a.577.577,0,0,0-.121.42q.09.364.576.244.426-.1.248-.834c-.01-.037-.023-.095-.041-.167s-.03-.122-.036-.146l.355-.087.171.7a.664.664,0,0,1-.044.41,1.068,1.068,0,0,1-.226.34.636.636,0,0,1,.361.164.646.646,0,0,1,.216.346.764.764,0,0,1-.168.669l.313-.077.2.847Z" transform="translate(-188.116 -598.248)" fill="#00a551"/>
          </g>
        </g>
      </g>
      <g id="Group_40366" data-name="Group 40366" transform="translate(47.143)">
        <path id="Path_376" data-name="Path 376" d="M1979.142,240.657a15.3,15.3,0,0,0,6.277,1.4,22.47,22.47,0,0,0,3.033-.108,18.151,18.151,0,0,0,3.01-.545c.328-.092.292-.013.292-.392q0-2.05,0-4.1v-.306a4.942,4.942,0,0,0-.661.2,15.423,15.423,0,0,1-3.453.557,10.694,10.694,0,0,1-3.446-.321,6.8,6.8,0,0,1-4.979-4.661,10.128,10.128,0,0,1-.009-6.237,6.756,6.756,0,0,1,2.725-3.7,8.02,8.02,0,0,1,3.774-1.312,12.619,12.619,0,0,1,5.763.752.479.479,0,0,0,.287.066v-4.728c0-.039,0-.079,0-.118a.144.144,0,0,0-.124-.17c-.087-.019-.172-.045-.257-.065a13.832,13.832,0,0,0-2.1-.312,23.99,23.99,0,0,0-5.119.066,14.9,14.9,0,0,0-4.873,1.5,11.738,11.738,0,0,0-5.326,5.4,13.108,13.108,0,0,0-1.214,4.407,14.759,14.759,0,0,0,.374,5.38A10.892,10.892,0,0,0,1979.142,240.657Z" transform="translate(-1964.613 -216.459)" fill="#00a651"/>
        <path id="Path_377" data-name="Path 377" d="M2166.729,221q0-2.079,0-4.158c0-.417.051-.363-.355-.363h-18.962c-.068,0-.137,0-.206,0-.119-.009-.158.052-.151.16,0,.049,0,.1,0,.147q0,2.123,0,4.246c0,.334-.021.317.323.317q3.1,0,6.192,0c.451,0,.4-.044.4.389q0,9.967,0,19.935a2.169,2.169,0,0,1,0,.236c-.017.15.057.178.19.178q2.7,0,5.4,0c.145,0,.227-.03.2-.195a1.529,1.529,0,0,1,0-.206V231.72q0-5.028,0-10.056c0-.346-.035-.313.317-.313h6.281c.079,0,.157,0,.237,0,.1,0,.145-.041.14-.141C2166.727,221.14,2166.729,221.071,2166.729,221Z" transform="translate(-2117.579 -216.477)" fill="#00a651"/>
        <path id="Path_378" data-name="Path 378" d="M1907.236,229.282v12.445c0,.079,0,.157,0,.236s.036.126.122.124.157,0,.236,0q2.521,0,5.043,0c.443,0,.379.054.379-.368q0-8.979,0-17.959,0-3.509,0-7.018c0-.256,0-.256-.256-.259h-.118q-2.522,0-5.043,0c-.411,0-.362-.056-.362.355Q1907.235,223.059,1907.236,229.282Z" transform="translate(-1907.232 -216.477)" fill="#00a651"/>
        <path id="Path_380" data-name="Path 380" d="M2253.412,462.589a.191.191,0,0,1-.109-.189c-.032-.072-.064-.144-.094-.216a55.85,55.85,0,0,0-2.937-5.541.252.252,0,0,0-.262-.136c-.629,0-1.259.005-1.888,0-.145,0-.225.032-.206.193a1.71,1.71,0,0,1,0,.177v7.9c0,.059.005.118,0,.177-.016.15.04.209.2.206.462-.009.925,0,1.386,0,.2,0,.207-.006.206-.22-.01-1.7.03-3.4-.043-5.1-.015-.328,0-.657,0-.985.044-.009.044.031.054.054a37.886,37.886,0,0,0,1.88,3.7c.434.781.865,1.564,1.3,2.345.055.1.09.212.249.209.59-.008,1.179,0,1.769,0,.115,0,.16-.047.154-.159-.005-.069,0-.138,0-.207v-5.515q0-1.254,0-2.507c0-.261,0-.263-.25-.264q-.648,0-1.3,0c-.255,0-.259,0-.258.257,0,1.818-.029,3.637.11,5.452A.593.593,0,0,1,2253.412,462.589Z" transform="translate(-2206.044 -425.525)" fill="#00a651"/>
        <path id="Path_381" data-name="Path 381" d="M1914.823,459.609a3.609,3.609,0,0,0-2.174-3.128,4.689,4.689,0,0,0-1.268-.369,14.1,14.1,0,0,0-3.906.042c-.266.033-.259.006-.259.305q0,1.975,0,3.95V464.3a1.609,1.609,0,0,1,0,.177c-.014.13.023.207.171.206.068,0,.135.023.2.029a17.518,17.518,0,0,0,2.532.059,7.477,7.477,0,0,0,1.908-.344,3.825,3.825,0,0,0,2.662-2.858A5.6,5.6,0,0,0,1914.823,459.609Zm-2.188,1.783a2.433,2.433,0,0,1-1.98,1.8,5.43,5.43,0,0,1-1.262.06c-.219-.006-.224-.014-.224-.242q0-1.311,0-2.623c0-.864,0-1.729,0-2.593,0-.155.041-.239.2-.25a4.822,4.822,0,0,1,1.61.078,2.3,2.3,0,0,1,1.768,2.08A4.019,4.019,0,0,1,1912.635,461.392Z" transform="translate(-1907.213 -425.076)" fill="#00a651"/>
        <path id="Path_382" data-name="Path 382" d="M2180.583,458.423a3.836,3.836,0,0,0-2.483-2.882,4.372,4.372,0,0,0-1.358-.233,3.974,3.974,0,0,0-3.935,2.5,5.25,5.25,0,0,0-.047,3.913,3.662,3.662,0,0,0,2.558,2.364,4.531,4.531,0,0,0,1.928.094,3.772,3.772,0,0,0,3.06-2.294,5.176,5.176,0,0,0,.413-2.2A4.661,4.661,0,0,0,2180.583,458.423Zm-2.121,2.685a2.8,2.8,0,0,1-.4.813,1.823,1.823,0,0,1-2.937.047,3.163,3.163,0,0,1-.611-1.722c-.013-.146,0-.294,0-.441a3.716,3.716,0,0,1,.3-1.692,1.956,1.956,0,0,1,1.269-1.183,1.784,1.784,0,0,1,1.976.7,3.1,3.1,0,0,1,.563,1.529A4.6,4.6,0,0,1,2178.463,461.109Z" transform="translate(-2139.814 -424.474)" fill="#00a651"/>
        <path id="Path_383" data-name="Path 383" d="M2004.538,456.485c-.167,0-.2.092-.228.206-.5,1.744-1.071,3.47-1.52,5.23-.1.41-.2.823-.3,1.265a.466.466,0,0,1-.062-.1c-.443-2.167-1.149-4.263-1.728-6.393-.045-.169-.128-.206-.29-.2-.57.01-1.14,0-1.71,0a.265.265,0,0,0-.17.024c-.032.1.029.192.058.282q.838,2.623,1.681,5.243.459,1.43.914,2.861c.076.238.078.238.323.24.295,0,.589,0,.885,0,.324,0,.649,0,.973,0,.126,0,.209-.028.234-.163a1,1,0,0,1,.048-.139q1.357-4.032,2.714-8.064a.4.4,0,0,0,.045-.286C2005.776,456.49,2005.156,456.5,2004.538,456.485Z" transform="translate(-1987.3 -425.509)" fill="#00a651"/>
        <path id="Path_384" data-name="Path 384" d="M2097.389,459.745a5.37,5.37,0,0,0-1.173-.608,10.259,10.259,0,0,1-1-.418,1.539,1.539,0,0,1-.479-.339.691.691,0,0,1,.021-.96,1.091,1.091,0,0,1,.538-.29,2.688,2.688,0,0,1,.966-.036,4.533,4.533,0,0,1,1.341.379c.14-.5.274-.979.41-1.459a.1.1,0,0,0-.062-.141c-.071-.03-.142-.066-.216-.092a5.51,5.51,0,0,0-2.817-.223,3.13,3.13,0,0,0-1.6.762,2.294,2.294,0,0,0,.059,3.458,4.494,4.494,0,0,0,.944.6c.328.158.675.266,1.012.4a2.7,2.7,0,0,1,.723.39.824.824,0,0,1-.161,1.428,1.532,1.532,0,0,1-.507.144,4.213,4.213,0,0,1-1.8-.216c-.24-.078-.474-.178-.734-.276-.108.438-.211.866-.321,1.292-.083.319-.093.294.212.43.045.02.09.038.137.054a6.04,6.04,0,0,0,2.9.288,3.56,3.56,0,0,0,1.7-.69A2.454,2.454,0,0,0,2097.389,459.745Z" transform="translate(-2069.711 -424.618)" fill="#00a651"/>
        <path id="Path_385" data-name="Path 385" d="M2150.71,456.837c0-.059,0-.118,0-.177,0-.1-.035-.141-.137-.14q-.839,0-1.679,0c-.1,0-.139.049-.134.144,0,.069,0,.137,0,.206v3.976q0,2.032,0,4.065c0,.257,0,.259.256.259q.693,0,1.385,0c.335,0,.31.033.31-.323Q2150.711,460.842,2150.71,456.837Z" transform="translate(-2119.077 -425.539)" fill="#00a651"/>
        <path id="Path_386" data-name="Path 386" d="M2068.185,465.173q.825-.005,1.651,0c.119,0,.157-.053.151-.16,0-.059,0-.118,0-.177v-7.993c0-.059,0-.118,0-.177,0-.095-.029-.145-.134-.145q-.84,0-1.681,0c-.1,0-.139.046-.135.142,0,.069,0,.138,0,.206q0,1.991,0,3.982V464.8c0,.069,0,.138,0,.206C2068.03,465.117,2068.064,465.174,2068.185,465.173Z" transform="translate(-2048.272 -425.54)" fill="#00a651"/>
        <path id="Path_387" data-name="Path 387" d="M1977.282,460.831v1.178q0,1.458,0,2.916c0,.238,0,.241.243.241.5,0,1,0,1.5,0,.146,0,.226-.036.206-.2a1.234,1.234,0,0,1,0-.147v-7.982c0-.059,0-.118,0-.177.008-.116-.047-.154-.157-.152-.245,0-.491,0-.737,0-.3,0-.608,0-.913,0-.1,0-.149.029-.145.133,0,.069,0,.137,0,.206Z" transform="translate(-1968.671 -425.535)" fill="#00a651"/>
        <path id="Path_453" data-name="Path 453" d="M2291.77,503.167c.021.018.036.059.049.061.038.007.021-.036.027-.055a.258.258,0,0,0-.008-.189C2291.8,503.042,2291.85,503.128,2291.77,503.167Z" transform="translate(-2244.509 -466.294)" fill="#93d6ae"/>
        <path id="Path_454" data-name="Path 454" d="M2291.845,503.174c-.006.019.011.062-.027.055-.013,0-.028-.043-.049-.061a.192.192,0,0,0,.109.189.592.592,0,0,0-.042-.372A.258.258,0,0,1,2291.845,503.174Z" transform="translate(-2244.509 -466.294)" fill="#93d6ae"/>
      </g>
    </g>
  </g>
</svg>
